<?xml version="1.0" encoding="utf-8"?>
<!-- Generator: Adobe Illustrator 23.0.1, SVG Export Plug-In . SVG Version: 6.00 Build 0)  -->
<svg version="1.1" id="Box_bg" xmlns="http://www.w3.org/2000/svg" xmlns:xlink="http://www.w3.org/1999/xlink" x="0px" y="0px"
	 viewBox="0 0 1920 1080" style="enable-background:new 0 0 1920 1080;" xml:space="preserve">
<style type="text/css">
	.st0{fill:#0F1F31;}
	.st1{fill:#122232;}
	.st2{fill:#0C1824;}
	.st3{fill:#0A1420;}
	.st4{fill:#0B1724;}
</style>
<title>blue_sq_grid_bg</title>
<rect x="-239" y="507.9" transform="matrix(0.7071 -0.7071 0.7071 0.7071 -474.6977 89.7921)" class="st0" width="220" height="220"/>
<rect x="-239" y="196.8" transform="matrix(0.7071 -0.7071 0.7071 0.7071 -254.7047 -1.3279)" class="st0" width="220" height="220"/>
<rect x="-83.4" y="352.4" transform="matrix(0.7071 -0.7071 0.7071 0.7071 -319.1411 154.2286)" class="st1" width="220" height="220"/>
<rect x="-239" y="-114.3" transform="matrix(0.7071 -0.7071 0.7071 0.7071 -34.7016 -92.4579)" class="st0" width="220" height="220"/>
<rect x="-83.4" y="41.2" transform="matrix(0.7071 -0.7071 0.7071 0.7071 -99.1381 63.0986)" class="st2" width="220" height="220"/>
<rect x="72.2" y="196.8" transform="matrix(0.7071 -0.7071 0.7071 0.7071 -163.5776 218.6681)" class="st3" width="220" height="220"/>
<rect x="72.2" y="-114.3" transform="matrix(0.7071 -0.7071 0.7071 0.7071 56.4254 127.5381)" class="st0" width="220" height="220"/>
<rect x="227.7" y="41.2" transform="matrix(0.7071 -0.7071 0.7071 0.7071 -8.0082 283.1017)" class="st1" width="220" height="220"/>
<rect x="383.3" y="-114.3" transform="matrix(0.7071 -0.7071 0.7071 0.7071 147.5484 347.5382)" class="st4" width="220" height="220"/>
<rect x="-238.9" y="819" transform="matrix(0.7071 -0.7071 0.7071 0.7071 -694.6848 180.9439)" class="st0" width="220" height="220"/>
<rect x="-83.4" y="974.6" transform="matrix(0.7071 -0.7071 0.7071 0.7071 -759.1143 336.5033)" class="st3" width="220" height="220"/>
<rect x="-83.4" y="663.5" transform="matrix(0.7071 -0.7071 0.7071 0.7071 -539.1183 245.3762)" class="st2" width="220" height="220"/>
<rect x="72.2" y="819" transform="matrix(0.7071 -0.7071 0.7071 0.7071 -603.5577 400.9398)" class="st1" width="220" height="220"/>
<rect x="227.8" y="974.6" transform="matrix(0.7071 -0.7071 0.7071 0.7071 -667.9913 556.5034)" class="st3" width="220" height="220"/>
<rect x="72.2" y="507.9" transform="matrix(0.7071 -0.7071 0.7071 0.7071 -383.5547 309.8098)" class="st0" width="220" height="220"/>
<rect x="227.8" y="663.5" transform="matrix(0.7071 -0.7071 0.7071 0.7071 -447.9954 465.3763)" class="st4" width="220" height="220"/>
<rect x="383.3" y="819" transform="matrix(0.7071 -0.7071 0.7071 0.7071 -512.4278 620.9428)" class="st2" width="220" height="220"/>
<rect x="538.9" y="974.6" transform="matrix(0.7071 -0.7071 0.7071 0.7071 -576.8643 776.4993)" class="st1" width="220" height="220"/>
<rect x="227.8" y="352.3" transform="matrix(0.7071 -0.7071 0.7071 0.7071 -227.9953 374.2534)" class="st2" width="220" height="220"/>
<rect x="383.3" y="507.9" transform="matrix(0.7071 -0.7071 0.7071 0.7071 -292.4248 529.8128)" class="st0" width="220" height="220"/>
<rect x="538.9" y="663.5" transform="matrix(0.7071 -0.7071 0.7071 0.7071 -356.8683 685.3723)" class="st3" width="220" height="220"/>
<rect x="694.5" y="819" transform="matrix(0.7071 -0.7071 0.7071 0.7071 -421.3048 840.9429)" class="st1" width="220" height="220"/>
<rect x="850" y="974.6" transform="matrix(0.7071 -0.7071 0.7071 0.7071 -485.7343 996.5024)" class="st4" width="220" height="220"/>
<rect x="383.3" y="196.8" transform="matrix(0.7071 -0.7071 0.7071 0.7071 -72.4288 438.6857)" class="st3" width="220" height="220"/>
<rect x="538.9" y="352.3" transform="matrix(0.7071 -0.7071 0.7071 0.7071 -136.8682 594.2493)" class="st1" width="220" height="220"/>
<rect x="694.5" y="507.9" transform="matrix(0.7071 -0.7071 0.7071 0.7071 -201.3018 749.8129)" class="st4" width="220" height="220"/>
<rect x="850" y="663.5" transform="matrix(0.7071 -0.7071 0.7071 0.7071 -265.7383 905.3753)" class="st3" width="220" height="220"/>
<rect x="1005.6" y="819" transform="matrix(0.7071 -0.7071 0.7071 0.7071 -330.1777 1060.9388)" class="st4" width="220" height="220"/>
<rect x="1161.1" y="974.6" transform="matrix(0.7071 -0.7071 0.7071 0.7071 -394.6114 1216.5024)" class="st1" width="220" height="220"/>
<rect x="538.9" y="41.2" transform="matrix(0.7071 -0.7071 0.7071 0.7071 83.1348 503.1193)" class="st0" width="220" height="220"/>
<rect x="694.5" y="196.8" transform="matrix(0.7071 -0.7071 0.7071 0.7071 18.6941 658.6859)" class="st2" width="220" height="220"/>
<rect x="850" y="352.3" transform="matrix(0.7071 -0.7071 0.7071 0.7071 -45.7382 814.2523)" class="st1" width="220" height="220"/>
<rect x="1005.6" y="507.9" transform="matrix(0.7071 -0.7071 0.7071 0.7071 -110.1747 969.8088)" class="st2" width="220" height="220"/>
<rect x="1161.1" y="663.5" transform="matrix(0.7071 -0.7071 0.7071 0.7071 -174.6154 1125.3754)" class="st0" width="220" height="220"/>
<rect x="1316.7" y="819" transform="matrix(0.7071 -0.7071 0.7071 0.7071 -239.0478 1280.9418)" class="st3" width="220" height="220"/>
<rect x="1472.3" y="974.6" transform="matrix(0.7071 -0.7071 0.7071 0.7071 -303.4843 1436.4984)" class="st2" width="220" height="220"/>
<rect x="694.5" y="-114.3" transform="matrix(0.7071 -0.7071 0.7071 0.7071 238.6942 567.5629)" class="st4" width="220" height="220"/>
<rect x="850" y="41.2" transform="matrix(0.7071 -0.7071 0.7071 0.7071 174.2648 723.1223)" class="st1" width="220" height="220"/>
<rect x="1005.6" y="196.8" transform="matrix(0.7071 -0.7071 0.7071 0.7071 109.8212 878.6818)" class="st0" width="220" height="220"/>
<rect x="1161.1" y="352.3" transform="matrix(0.7071 -0.7071 0.7071 0.7071 45.3847 1034.2524)" class="st4" width="220" height="220"/>
<rect x="1316.7" y="507.9" transform="matrix(0.7071 -0.7071 0.7071 0.7071 -19.0448 1189.8119)" class="st3" width="220" height="220"/>
<rect x="1472.3" y="663.5" transform="matrix(0.7071 -0.7071 0.7071 0.7071 -83.4883 1345.3713)" class="st2" width="220" height="220"/>
<rect x="1627.8" y="819" transform="matrix(0.7071 -0.7071 0.7071 0.7071 -147.9248 1500.9419)" class="st0" width="220" height="220"/>
<rect x="1783.4" y="974.6" transform="matrix(0.7071 -0.7071 0.7071 0.7071 -212.3543 1656.5015)" class="st0" width="220" height="220"/>
<rect x="1939" y="819" transform="matrix(0.7071 -0.7071 0.7071 0.7071 -56.7948 1720.9449)" class="st0" width="220" height="220"/>
<rect x="1005.6" y="-114.4" transform="matrix(0.7071 -0.7071 0.7071 0.7071 329.8213 787.5588)" class="st1" width="220" height="220"/>
<rect x="1161.1" y="41.2" transform="matrix(0.7071 -0.7071 0.7071 0.7071 265.3877 943.1224)" class="st2" width="220" height="220"/>
<rect x="1316.7" y="196.8" transform="matrix(0.7071 -0.7071 0.7071 0.7071 200.9512 1098.6848)" class="st1" width="220" height="220"/>
<rect x="1472.3" y="352.3" transform="matrix(0.7071 -0.7071 0.7071 0.7071 136.5118 1254.2483)" class="st2" width="220" height="220"/>
<rect x="1627.8" y="507.9" transform="matrix(0.7071 -0.7071 0.7071 0.7071 72.0781 1409.8119)" class="st4" width="220" height="220"/>
<rect x="1783.4" y="663.5" transform="matrix(0.7071 -0.7071 0.7071 0.7071 7.6417 1565.3743)" class="st2" width="220" height="220"/>
<rect x="1939" y="507.9" transform="matrix(0.7071 -0.7071 0.7071 0.7071 163.2081 1629.8149)" class="st0" width="220" height="220"/>
<rect x="1316.7" y="-114.4" transform="matrix(0.7071 -0.7071 0.7071 0.7071 420.9513 1007.5618)" class="st2" width="220" height="220"/>
<rect x="1472.3" y="41.2" transform="matrix(0.7071 -0.7071 0.7071 0.7071 356.5148 1163.1184)" class="st0" width="220" height="220"/>
<rect x="1627.8" y="196.8" transform="matrix(0.7071 -0.7071 0.7071 0.7071 292.0741 1318.6848)" class="st3" width="220" height="220"/>
<rect x="1783.4" y="352.3" transform="matrix(0.7071 -0.7071 0.7071 0.7071 227.6418 1474.2513)" class="st2" width="220" height="220"/>
<rect x="1939" y="196.8" transform="matrix(0.7071 -0.7071 0.7071 0.7071 383.2041 1538.6879)" class="st0" width="220" height="220"/>
<rect x="1627.8" y="-114.3" transform="matrix(0.7071 -0.7071 0.7071 0.7071 512.0742 1227.562)" class="st1" width="220" height="220"/>
<rect x="1783.4" y="41.2" transform="matrix(0.7071 -0.7071 0.7071 0.7071 447.6448 1383.1213)" class="st2" width="220" height="220"/>
<rect x="1939" y="-114.3" transform="matrix(0.7071 -0.7071 0.7071 0.7071 603.2042 1447.5649)" class="st0" width="220" height="220"/>
</svg>
