<?xml version="1.0" encoding="utf-8"?>
<!-- Generator: Adobe Illustrator 23.0.1, SVG Export Plug-In . SVG Version: 6.00 Build 0)  -->
<svg version="1.1" id="Box_bg" xmlns="http://www.w3.org/2000/svg" xmlns:xlink="http://www.w3.org/1999/xlink" x="0px" y="0px"
	 viewBox="0 0 1920 1080" style="enable-background:new 0 0 1920 1080;" xml:space="preserve">
<style type="text/css">
	.st0{fill:#0F1F31;}
	.st1{fill:#122232;}
	.st2{fill:#0C1824;}
	.st3{fill:#0A1420;}
	.st4{fill:#0B1724;}
</style>
<title>blue_sq_grid_bg</title>
<title>blue_sq_grid_bg</title>
<g>
	<g>
		
			<rect x="-550.9" y="904.8" transform="matrix(0.7071 -0.7071 0.7071 0.7071 -829.3167 -56.4832)" class="st0" width="136" height="136"/>
		
			<rect x="-550.9" y="712.4" transform="matrix(0.7071 -0.7071 0.7071 0.7071 -693.2909 -112.8244)" class="st0" width="136" height="136"/>
		
			<rect x="-454.7" y="808.6" transform="matrix(0.7071 -0.7071 0.7071 0.7071 -733.1332 -16.6409)" class="st1" width="136" height="136"/>
		
			<rect x="-550.9" y="520.1" transform="matrix(0.7071 -0.7071 0.7071 0.7071 -557.2589 -169.1718)" class="st0" width="136" height="136"/>
		
			<rect x="-454.7" y="616.3" transform="matrix(0.7071 -0.7071 0.7071 0.7071 -597.1012 -72.9883)" class="st2" width="136" height="136"/>
		
			<rect x="-358.5" y="712.4" transform="matrix(0.7071 -0.7071 0.7071 0.7071 -636.9453 23.2032)" class="st3" width="136" height="136"/>
		
			<rect x="-358.5" y="520.1" transform="matrix(0.7071 -0.7071 0.7071 0.7071 -500.9134 -33.1442)" class="st0" width="136" height="136"/>
		
			<rect x="-262.3" y="616.3" transform="matrix(0.7071 -0.7071 0.7071 0.7071 -540.7538 63.0437)" class="st1" width="136" height="136"/>
		
			<rect x="-166.1" y="520.1" transform="matrix(0.7071 -0.7071 0.7071 0.7071 -444.5703 102.886)" class="st4" width="136" height="136"/>
		
			<rect x="-550.8" y="1097.2" transform="matrix(0.7071 -0.7071 0.7071 0.7071 -965.3388 -0.1224)" class="st0" width="136" height="136"/>
		
			<rect x="-454.6" y="1193.4" transform="matrix(0.7071 -0.7071 0.7071 0.7071 -1005.1768 96.0629)" class="st3" width="136" height="136"/>
		
			<rect x="-454.6" y="1001" transform="matrix(0.7071 -0.7071 0.7071 0.7071 -869.1492 39.7173)" class="st2" width="136" height="136"/>
		
			<rect x="-358.5" y="1097.2" transform="matrix(0.7071 -0.7071 0.7071 0.7071 -908.9933 135.9052)" class="st1" width="136" height="136"/>
		
			<rect x="-262.3" y="1193.4" transform="matrix(0.7071 -0.7071 0.7071 0.7071 -948.8337 232.0931)" class="st3" width="136" height="136"/>
		
			<rect x="-358.5" y="904.8" transform="matrix(0.7071 -0.7071 0.7071 0.7071 -772.9613 79.5578)" class="st0" width="136" height="136"/>
		
			<rect x="-262.3" y="1001" transform="matrix(0.7071 -0.7071 0.7071 0.7071 -812.8062 175.7475)" class="st4" width="136" height="136"/>
		
			<rect x="-166.1" y="1097.2" transform="matrix(0.7071 -0.7071 0.7071 0.7071 -852.6459 271.9372)" class="st2" width="136" height="136"/>
		
			<rect x="-69.9" y="1193.4" transform="matrix(0.7071 -0.7071 0.7071 0.7071 -892.4882 368.1207)" class="st1" width="136" height="136"/>
		
			<rect x="-262.3" y="808.6" transform="matrix(0.7071 -0.7071 0.7071 0.7071 -676.776 119.4045)" class="st2" width="136" height="136"/>
		
			<rect x="-166.1" y="904.8" transform="matrix(0.7071 -0.7071 0.7071 0.7071 -716.614 215.5898)" class="st0" width="136" height="136"/>
		
			<rect x="-69.9" y="1001" transform="matrix(0.7071 -0.7071 0.7071 0.7071 -756.4606 311.7751)" class="st3" width="136" height="136"/>
		
			<rect x="26.3" y="1097.2" transform="matrix(0.7071 -0.7071 0.7071 0.7071 -796.3029 407.9673)" class="st1" width="136" height="136"/>
		
			<rect x="122.5" y="1193.4" transform="matrix(0.7071 -0.7071 0.7071 0.7071 -836.1408 504.1526)" class="st4" width="136" height="136"/>
		
			<rect x="-166.1" y="712.4" transform="matrix(0.7071 -0.7071 0.7071 0.7071 -580.5864 159.2442)" class="st3" width="136" height="136"/>
		
			<rect x="-69.9" y="808.6" transform="matrix(0.7071 -0.7071 0.7071 0.7071 -620.4304 255.4321)" class="st1" width="136" height="136"/>
		
			<rect x="26.3" y="904.8" transform="matrix(0.7071 -0.7071 0.7071 0.7071 -660.2709 351.6199)" class="st4" width="136" height="136"/>
		
			<rect x="122.5" y="1001" transform="matrix(0.7071 -0.7071 0.7071 0.7071 -700.1132 447.8071)" class="st3" width="136" height="136"/>
		
			<rect x="218.7" y="1097.2" transform="matrix(0.7071 -0.7071 0.7071 0.7071 -739.9573 543.9949)" class="st4" width="136" height="136"/>
		
			<rect x="314.9" y="1193.4" transform="matrix(0.7071 -0.7071 0.7071 0.7071 -779.7978 640.1828)" class="st1" width="136" height="136"/>
		
			<rect x="-69.9" y="616.2" transform="matrix(0.7071 -0.7071 0.7071 0.7071 -484.3984 199.0847)" class="st0" width="136" height="136"/>
		
			<rect x="26.3" y="712.4" transform="matrix(0.7071 -0.7071 0.7071 0.7071 -524.2433 295.2744)" class="st2" width="136" height="136"/>
		
			<rect x="122.5" y="808.6" transform="matrix(0.7071 -0.7071 0.7071 0.7071 -564.0831 391.464)" class="st1" width="136" height="136"/>
		
			<rect x="218.7" y="904.8" transform="matrix(0.7071 -0.7071 0.7071 0.7071 -603.9254 487.6475)" class="st2" width="136" height="136"/>
		
			<rect x="314.9" y="1001" transform="matrix(0.7071 -0.7071 0.7071 0.7071 -643.7702 583.8372)" class="st0" width="136" height="136"/>
		
			<rect x="411" y="1097.2" transform="matrix(0.7071 -0.7071 0.7071 0.7071 -683.6099 680.0269)" class="st3" width="136" height="136"/>
		
			<rect x="507.2" y="1193.4" transform="matrix(0.7071 -0.7071 0.7071 0.7071 -723.4522 776.2104)" class="st2" width="136" height="136"/>
		
			<rect x="26.3" y="520.1" transform="matrix(0.7071 -0.7071 0.7071 0.7071 -388.2132 238.9314)" class="st4" width="136" height="136"/>
		
			<rect x="122.5" y="616.2" transform="matrix(0.7071 -0.7071 0.7071 0.7071 -428.0511 335.1167)" class="st1" width="136" height="136"/>
		
			<rect x="218.7" y="712.4" transform="matrix(0.7071 -0.7071 0.7071 0.7071 -467.8977 431.302)" class="st0" width="136" height="136"/>
		
			<rect x="314.9" y="808.6" transform="matrix(0.7071 -0.7071 0.7071 0.7071 -507.7401 527.4942)" class="st4" width="136" height="136"/>
		
			<rect x="411" y="904.8" transform="matrix(0.7071 -0.7071 0.7071 0.7071 -547.578 623.6795)" class="st3" width="136" height="136"/>
		
			<rect x="507.2" y="1001" transform="matrix(0.7071 -0.7071 0.7071 0.7071 -587.4246 719.8648)" class="st2" width="136" height="136"/>
		
			<rect x="603.4" y="1097.2" transform="matrix(0.7071 -0.7071 0.7071 0.7071 -627.2669 816.057)" class="st0" width="136" height="136"/>
		
			<rect x="699.6" y="1193.4" transform="matrix(0.7071 -0.7071 0.7071 0.7071 -667.1049 912.2424)" class="st0" width="136" height="136"/>
		
			<rect x="795.8" y="1097.2" transform="matrix(0.7071 -0.7071 0.7071 0.7071 -570.9196 952.089)" class="st0" width="136" height="136"/>
		
			<rect x="218.7" y="520.1" transform="matrix(0.7071 -0.7071 0.7071 0.7071 -331.8676 374.959)" class="st1" width="136" height="136"/>
		
			<rect x="314.9" y="616.2" transform="matrix(0.7071 -0.7071 0.7071 0.7071 -371.7081 471.1468)" class="st2" width="136" height="136"/>
		
			<rect x="411" y="712.4" transform="matrix(0.7071 -0.7071 0.7071 0.7071 -411.5504 567.3339)" class="st1" width="136" height="136"/>
		
			<rect x="507.2" y="808.6" transform="matrix(0.7071 -0.7071 0.7071 0.7071 -451.3945 663.5218)" class="st2" width="136" height="136"/>
		
			<rect x="603.4" y="904.8" transform="matrix(0.7071 -0.7071 0.7071 0.7071 -491.235 759.7097)" class="st4" width="136" height="136"/>
		
			<rect x="699.6" y="1001" transform="matrix(0.7071 -0.7071 0.7071 0.7071 -531.0773 855.8968)" class="st2" width="136" height="136"/>
		
			<rect x="795.8" y="904.8" transform="matrix(0.7071 -0.7071 0.7071 0.7071 -434.8876 895.7416)" class="st0" width="136" height="136"/>
		
			<rect x="411" y="520.1" transform="matrix(0.7071 -0.7071 0.7071 0.7071 -275.5202 510.9909)" class="st2" width="136" height="136"/>
		
			<rect x="507.2" y="616.2" transform="matrix(0.7071 -0.7071 0.7071 0.7071 -315.3625 607.1744)" class="st0" width="136" height="136"/>
		
			<rect x="603.4" y="712.4" transform="matrix(0.7071 -0.7071 0.7071 0.7071 -355.2074 703.3641)" class="st3" width="136" height="136"/>
		
			<rect x="699.6" y="808.6" transform="matrix(0.7071 -0.7071 0.7071 0.7071 -395.0471 799.5538)" class="st2" width="136" height="136"/>
		
			<rect x="795.8" y="712.4" transform="matrix(0.7071 -0.7071 0.7071 0.7071 -298.86 839.3961)" class="st0" width="136" height="136"/>
		
			<rect x="603.4" y="520.1" transform="matrix(0.7071 -0.7071 0.7071 0.7071 -219.1772 647.0211)" class="st1" width="136" height="136"/>
		
			<rect x="699.6" y="616.2" transform="matrix(0.7071 -0.7071 0.7071 0.7071 -259.0151 743.2064)" class="st2" width="136" height="136"/>
		
			<rect x="795.8" y="520.1" transform="matrix(0.7071 -0.7071 0.7071 0.7071 -162.8299 783.053)" class="st2" width="136" height="136"/>
		
			<rect x="-550.9" y="135.3" transform="matrix(0.7071 -0.7071 0.7071 0.7071 -285.2039 -281.8621)" class="st0" width="136" height="136"/>
		
			<rect x="-550.9" y="-57" transform="matrix(0.7071 -0.7071 0.7071 0.7071 -149.1782 -338.2033)" class="st0" width="136" height="136"/>
		
			<rect x="-454.7" y="39.1" transform="matrix(0.7071 -0.7071 0.7071 0.7071 -189.0205 -242.0198)" class="st1" width="136" height="136"/>
		
			<rect x="-550.9" y="-249.4" transform="matrix(0.7071 -0.7071 0.7071 0.7071 -13.1462 -394.5507)" class="st0" width="136" height="136"/>
		
			<rect x="-454.7" y="-153.2" transform="matrix(0.7071 -0.7071 0.7071 0.7071 -52.9885 -298.3672)" class="st2" width="136" height="136"/>
		
			<rect x="-358.5" y="-57" transform="matrix(0.7071 -0.7071 0.7071 0.7071 -92.8326 -202.1757)" class="st3" width="136" height="136"/>
		
			<rect x="-358.5" y="-249.4" transform="matrix(0.7071 -0.7071 0.7071 0.7071 43.1994 -258.5231)" class="st0" width="136" height="136"/>
		
			<rect x="-262.3" y="-153.2" transform="matrix(0.7071 -0.7071 0.7071 0.7071 3.3589 -162.3352)" class="st1" width="136" height="136"/>
		
			<rect x="-166.1" y="-249.4" transform="matrix(0.7071 -0.7071 0.7071 0.7071 99.5424 -122.4929)" class="st4" width="136" height="136"/>
		
			<rect x="-550.8" y="327.7" transform="matrix(0.7071 -0.7071 0.7071 0.7071 -421.2261 -225.5013)" class="st0" width="136" height="136"/>
		
			<rect x="-454.6" y="423.9" transform="matrix(0.7071 -0.7071 0.7071 0.7071 -461.0641 -129.316)" class="st3" width="136" height="136"/>
		
			<rect x="-454.6" y="231.5" transform="matrix(0.7071 -0.7071 0.7071 0.7071 -325.0364 -185.6615)" class="st2" width="136" height="136"/>
		
			<rect x="-358.5" y="327.7" transform="matrix(0.7071 -0.7071 0.7071 0.7071 -364.8806 -89.4737)" class="st1" width="136" height="136"/>
		
			<rect x="-262.3" y="423.9" transform="matrix(0.7071 -0.7071 0.7071 0.7071 -404.721 6.7142)" class="st3" width="136" height="136"/>
		
			<rect x="-358.5" y="135.3" transform="matrix(0.7071 -0.7071 0.7071 0.7071 -228.8486 -145.8211)" class="st0" width="136" height="136"/>
		
			<rect x="-262.3" y="231.5" transform="matrix(0.7071 -0.7071 0.7071 0.7071 -268.6935 -49.6314)" class="st4" width="136" height="136"/>
		
			<rect x="-166.1" y="327.7" transform="matrix(0.7071 -0.7071 0.7071 0.7071 -308.5332 46.5583)" class="st2" width="136" height="136"/>
		
			<rect x="-69.9" y="423.9" transform="matrix(0.7071 -0.7071 0.7071 0.7071 -348.3755 142.7418)" class="st1" width="136" height="136"/>
		
			<rect x="-262.3" y="39.1" transform="matrix(0.7071 -0.7071 0.7071 0.7071 -132.6633 -105.9744)" class="st2" width="136" height="136"/>
		
			<rect x="-166.1" y="135.3" transform="matrix(0.7071 -0.7071 0.7071 0.7071 -172.5012 -9.7891)" class="st0" width="136" height="136"/>
		
			<rect x="-69.9" y="231.5" transform="matrix(0.7071 -0.7071 0.7071 0.7071 -212.3479 86.3962)" class="st3" width="136" height="136"/>
		
			<rect x="26.3" y="327.7" transform="matrix(0.7071 -0.7071 0.7071 0.7071 -252.1902 182.5885)" class="st1" width="136" height="136"/>
		
			<rect x="122.5" y="423.9" transform="matrix(0.7071 -0.7071 0.7071 0.7071 -292.0281 278.7738)" class="st4" width="136" height="136"/>
		
			<rect x="-166.1" y="-57.1" transform="matrix(0.7071 -0.7071 0.7071 0.7071 -36.4736 -66.1347)" class="st3" width="136" height="136"/>
		
			<rect x="-69.9" y="39.1" transform="matrix(0.7071 -0.7071 0.7071 0.7071 -76.3177 30.0532)" class="st1" width="136" height="136"/>
		
			<rect x="26.3" y="135.3" transform="matrix(0.7071 -0.7071 0.7071 0.7071 -116.1582 126.2411)" class="st4" width="136" height="136"/>
		
			<rect x="122.5" y="231.5" transform="matrix(0.7071 -0.7071 0.7071 0.7071 -156.0005 222.4282)" class="st3" width="136" height="136"/>
		
			<rect x="218.7" y="327.7" transform="matrix(0.7071 -0.7071 0.7071 0.7071 -195.8446 318.6161)" class="st4" width="136" height="136"/>
		
			<rect x="314.9" y="423.9" transform="matrix(0.7071 -0.7071 0.7071 0.7071 -235.6851 414.8039)" class="st1" width="136" height="136"/>
		
			<rect x="-69.9" y="-153.2" transform="matrix(0.7071 -0.7071 0.7071 0.7071 59.7143 -26.2942)" class="st0" width="136" height="136"/>
		
			<rect x="26.3" y="-57.1" transform="matrix(0.7071 -0.7071 0.7071 0.7071 19.8694 69.8955)" class="st2" width="136" height="136"/>
		
			<rect x="122.5" y="39.1" transform="matrix(0.7071 -0.7071 0.7071 0.7071 -19.9703 166.0852)" class="st1" width="136" height="136"/>
		
			<rect x="218.7" y="135.3" transform="matrix(0.7071 -0.7071 0.7071 0.7071 -59.8126 262.2687)" class="st2" width="136" height="136"/>
		
			<rect x="314.9" y="231.5" transform="matrix(0.7071 -0.7071 0.7071 0.7071 -99.6575 358.4583)" class="st0" width="136" height="136"/>
		
			<rect x="411" y="327.7" transform="matrix(0.7071 -0.7071 0.7071 0.7071 -139.4972 454.648)" class="st3" width="136" height="136"/>
		
			<rect x="507.2" y="423.9" transform="matrix(0.7071 -0.7071 0.7071 0.7071 -179.3395 550.8315)" class="st2" width="136" height="136"/>
		
			<rect x="26.3" y="-249.4" transform="matrix(0.7071 -0.7071 0.7071 0.7071 155.8996 13.5525)" class="st4" width="136" height="136"/>
		
			<rect x="122.5" y="-153.2" transform="matrix(0.7071 -0.7071 0.7071 0.7071 116.0616 109.7378)" class="st1" width="136" height="136"/>
		
			<rect x="218.7" y="-57.1" transform="matrix(0.7071 -0.7071 0.7071 0.7071 76.215 205.9231)" class="st0" width="136" height="136"/>
		
			<rect x="314.9" y="39.1" transform="matrix(0.7071 -0.7071 0.7071 0.7071 36.3727 302.1153)" class="st4" width="136" height="136"/>
		
			<rect x="411" y="135.3" transform="matrix(0.7071 -0.7071 0.7071 0.7071 -3.4653 398.3006)" class="st3" width="136" height="136"/>
		
			<rect x="507.2" y="231.5" transform="matrix(0.7071 -0.7071 0.7071 0.7071 -43.3119 494.4859)" class="st2" width="136" height="136"/>
		
			<rect x="603.4" y="327.7" transform="matrix(0.7071 -0.7071 0.7071 0.7071 -83.1542 590.6782)" class="st0" width="136" height="136"/>
		
			<rect x="699.6" y="423.9" transform="matrix(0.7071 -0.7071 0.7071 0.7071 -122.9921 686.8635)" class="st3" width="136" height="136"/>
		
			<rect x="795.8" y="327.7" transform="matrix(0.7071 -0.7071 0.7071 0.7071 -26.8068 726.7101)" class="st4" width="136" height="136"/>
		
			<rect x="218.7" y="-249.4" transform="matrix(0.7071 -0.7071 0.7071 0.7071 212.2451 149.5801)" class="st1" width="136" height="136"/>
		
			<rect x="314.9" y="-153.2" transform="matrix(0.7071 -0.7071 0.7071 0.7071 172.4046 245.768)" class="st2" width="136" height="136"/>
		
			<rect x="411" y="-57.1" transform="matrix(0.7071 -0.7071 0.7071 0.7071 132.5623 341.955)" class="st1" width="136" height="136"/>
		
			<rect x="507.2" y="39.1" transform="matrix(0.7071 -0.7071 0.7071 0.7071 92.7182 438.1429)" class="st2" width="136" height="136"/>
		
			<rect x="603.4" y="135.3" transform="matrix(0.7071 -0.7071 0.7071 0.7071 52.8777 534.3308)" class="st0" width="136" height="136"/>
		
			<rect x="699.6" y="231.5" transform="matrix(0.7071 -0.7071 0.7071 0.7071 13.0355 630.5179)" class="st2" width="136" height="136"/>
		
			<rect x="795.8" y="135.3" transform="matrix(0.7071 -0.7071 0.7071 0.7071 109.2251 670.3628)" class="st3" width="136" height="136"/>
		
			<rect x="411" y="-249.4" transform="matrix(0.7071 -0.7071 0.7071 0.7071 268.5925 285.6121)" class="st2" width="136" height="136"/>
		
			<rect x="507.2" y="-153.2" transform="matrix(0.7071 -0.7071 0.7071 0.7071 228.7502 381.7956)" class="st0" width="136" height="136"/>
		
			<rect x="603.4" y="-57.1" transform="matrix(0.7071 -0.7071 0.7071 0.7071 188.9053 477.9852)" class="st3" width="136" height="136"/>
		
			<rect x="699.6" y="39.1" transform="matrix(0.7071 -0.7071 0.7071 0.7071 149.0656 574.1749)" class="st2" width="136" height="136"/>
		
			<rect x="795.8" y="-57.1" transform="matrix(0.7071 -0.7071 0.7071 0.7071 245.2527 614.0172)" class="st0" width="136" height="136"/>
		
			<rect x="603.4" y="-249.4" transform="matrix(0.7071 -0.7071 0.7071 0.7071 324.9355 421.6422)" class="st1" width="136" height="136"/>
		
			<rect x="699.6" y="-153.2" transform="matrix(0.7071 -0.7071 0.7071 0.7071 285.0976 517.8275)" class="st2" width="136" height="136"/>
		
			<rect x="795.8" y="-249.4" transform="matrix(0.7071 -0.7071 0.7071 0.7071 381.2828 557.6742)" class="st0" width="136" height="136"/>
	</g>
	<g>
		
			<rect x="988.2" y="904.8" transform="matrix(0.7071 -0.7071 0.7071 0.7071 -378.5464 1031.7725)" class="st0" width="136" height="136"/>
		
			<rect x="988.2" y="712.4" transform="matrix(0.7071 -0.7071 0.7071 0.7071 -242.5206 975.4312)" class="st0" width="136" height="136"/>
		
			<rect x="1084.4" y="808.6" transform="matrix(0.7071 -0.7071 0.7071 0.7071 -282.3629 1071.6147)" class="st1" width="136" height="136"/>
		
			<rect x="988.2" y="520.1" transform="matrix(0.7071 -0.7071 0.7071 0.7071 -106.4887 919.0839)" class="st2" width="136" height="136"/>
		
			<rect x="1084.4" y="616.3" transform="matrix(0.7071 -0.7071 0.7071 0.7071 -146.331 1015.2673)" class="st2" width="136" height="136"/>
		
			<rect x="1180.5" y="712.4" transform="matrix(0.7071 -0.7071 0.7071 0.7071 -186.1751 1111.4589)" class="st3" width="136" height="136"/>
		
			<rect x="1180.5" y="520.1" transform="matrix(0.7071 -0.7071 0.7071 0.7071 -50.1431 1055.1115)" class="st0" width="136" height="136"/>
		
			<rect x="1276.7" y="616.3" transform="matrix(0.7071 -0.7071 0.7071 0.7071 -89.9836 1151.2993)" class="st1" width="136" height="136"/>
		
			<rect x="1372.9" y="520.1" transform="matrix(0.7071 -0.7071 0.7071 0.7071 6.1999 1191.1416)" class="st4" width="136" height="136"/>
		
			<rect x="988.2" y="1097.2" transform="matrix(0.7071 -0.7071 0.7071 0.7071 -514.5686 1088.1333)" class="st0" width="136" height="136"/>
		
			<rect x="1084.4" y="1193.4" transform="matrix(0.7071 -0.7071 0.7071 0.7071 -554.4065 1184.3186)" class="st3" width="136" height="136"/>
		
			<rect x="1084.4" y="1001" transform="matrix(0.7071 -0.7071 0.7071 0.7071 -418.3789 1127.973)" class="st2" width="136" height="136"/>
		
			<rect x="1180.6" y="1097.2" transform="matrix(0.7071 -0.7071 0.7071 0.7071 -458.223 1224.1609)" class="st1" width="136" height="136"/>
		
			<rect x="1276.8" y="1193.4" transform="matrix(0.7071 -0.7071 0.7071 0.7071 -498.0635 1320.3488)" class="st3" width="136" height="136"/>
		
			<rect x="1180.6" y="904.8" transform="matrix(0.7071 -0.7071 0.7071 0.7071 -322.191 1167.8135)" class="st0" width="136" height="136"/>
		
			<rect x="1276.8" y="1001" transform="matrix(0.7071 -0.7071 0.7071 0.7071 -362.0359 1264.0032)" class="st4" width="136" height="136"/>
		
			<rect x="1372.9" y="1097.2" transform="matrix(0.7071 -0.7071 0.7071 0.7071 -401.8757 1360.1927)" class="st2" width="136" height="136"/>
		
			<rect x="1469.1" y="1193.4" transform="matrix(0.7071 -0.7071 0.7071 0.7071 -441.7179 1456.3763)" class="st1" width="136" height="136"/>
		
			<rect x="1276.8" y="808.6" transform="matrix(0.7071 -0.7071 0.7071 0.7071 -226.0057 1207.6602)" class="st2" width="136" height="136"/>
		
			<rect x="1372.9" y="904.8" transform="matrix(0.7071 -0.7071 0.7071 0.7071 -265.8437 1303.8455)" class="st0" width="136" height="136"/>
		
			<rect x="1469.1" y="1001" transform="matrix(0.7071 -0.7071 0.7071 0.7071 -305.6903 1400.0308)" class="st3" width="136" height="136"/>
		
			<rect x="1565.3" y="1097.2" transform="matrix(0.7071 -0.7071 0.7071 0.7071 -345.5326 1496.223)" class="st1" width="136" height="136"/>
		
			<rect x="1661.5" y="1193.4" transform="matrix(0.7071 -0.7071 0.7071 0.7071 -385.3705 1592.4083)" class="st4" width="136" height="136"/>
		
			<rect x="1372.9" y="712.4" transform="matrix(0.7071 -0.7071 0.7071 0.7071 -129.8161 1247.4999)" class="st3" width="136" height="136"/>
		
			<rect x="1469.1" y="808.6" transform="matrix(0.7071 -0.7071 0.7071 0.7071 -169.6602 1343.6877)" class="st1" width="136" height="136"/>
		
			<rect x="1565.3" y="904.8" transform="matrix(0.7071 -0.7071 0.7071 0.7071 -209.5007 1439.8756)" class="st4" width="136" height="136"/>
		
			<rect x="1661.5" y="1001" transform="matrix(0.7071 -0.7071 0.7071 0.7071 -249.343 1536.0627)" class="st3" width="136" height="136"/>
		
			<rect x="1757.7" y="1097.2" transform="matrix(0.7071 -0.7071 0.7071 0.7071 -289.187 1632.2506)" class="st4" width="136" height="136"/>
		
			<rect x="1853.9" y="1193.4" transform="matrix(0.7071 -0.7071 0.7071 0.7071 -329.0276 1728.4385)" class="st1" width="136" height="136"/>
		
			<rect x="1469.1" y="616.2" transform="matrix(0.7071 -0.7071 0.7071 0.7071 -33.6282 1287.3403)" class="st0" width="136" height="136"/>
		
			<rect x="1565.3" y="712.4" transform="matrix(0.7071 -0.7071 0.7071 0.7071 -73.4731 1383.53)" class="st2" width="136" height="136"/>
		
			<rect x="1661.5" y="808.6" transform="matrix(0.7071 -0.7071 0.7071 0.7071 -113.3128 1479.7197)" class="st1" width="136" height="136"/>
		
			<rect x="1757.7" y="904.8" transform="matrix(0.7071 -0.7071 0.7071 0.7071 -153.1551 1575.9032)" class="st2" width="136" height="136"/>
		
			<rect x="1853.9" y="1001" transform="matrix(0.7071 -0.7071 0.7071 0.7071 -193 1672.0929)" class="st0" width="136" height="136"/>
		
			<rect x="1950.1" y="1097.2" transform="matrix(0.7071 -0.7071 0.7071 0.7071 -232.8397 1768.2825)" class="st3" width="136" height="136"/>
		
			<rect x="2046.3" y="1193.4" transform="matrix(0.7071 -0.7071 0.7071 0.7071 -272.682 1864.4661)" class="st2" width="136" height="136"/>
		
			<rect x="1565.3" y="520.1" transform="matrix(0.7071 -0.7071 0.7071 0.7071 62.5571 1327.187)" class="st4" width="136" height="136"/>
		
			<rect x="1661.5" y="616.2" transform="matrix(0.7071 -0.7071 0.7071 0.7071 22.7192 1423.3723)" class="st1" width="136" height="136"/>
		
			<rect x="1757.7" y="712.4" transform="matrix(0.7071 -0.7071 0.7071 0.7071 -17.1275 1519.5576)" class="st0" width="136" height="136"/>
		
			<rect x="1853.9" y="808.6" transform="matrix(0.7071 -0.7071 0.7071 0.7071 -56.9698 1615.7499)" class="st4" width="136" height="136"/>
		
			<rect x="1950.1" y="904.8" transform="matrix(0.7071 -0.7071 0.7071 0.7071 -96.8078 1711.9352)" class="st3" width="136" height="136"/>
		
			<rect x="2046.3" y="1001" transform="matrix(0.7071 -0.7071 0.7071 0.7071 -136.6544 1808.1205)" class="st2" width="136" height="136"/>
		
			<rect x="2142.4" y="1097.2" transform="matrix(0.7071 -0.7071 0.7071 0.7071 -176.4967 1904.3126)" class="st0" width="136" height="136"/>
		
			<rect x="2238.6" y="1193.4" transform="matrix(0.7071 -0.7071 0.7071 0.7071 -216.3346 2000.498)" class="st0" width="136" height="136"/>
		
			<rect x="2334.8" y="1097.2" transform="matrix(0.7071 -0.7071 0.7071 0.7071 -120.1493 2040.3446)" class="st0" width="136" height="136"/>
		
			<rect x="1757.7" y="520.1" transform="matrix(0.7071 -0.7071 0.7071 0.7071 118.9027 1463.2146)" class="st1" width="136" height="136"/>
		
			<rect x="1853.9" y="616.2" transform="matrix(0.7071 -0.7071 0.7071 0.7071 79.0622 1559.4025)" class="st2" width="136" height="136"/>
		
			<rect x="1950.1" y="712.4" transform="matrix(0.7071 -0.7071 0.7071 0.7071 39.2199 1655.5896)" class="st1" width="136" height="136"/>
		
			<rect x="2046.3" y="808.6" transform="matrix(0.7071 -0.7071 0.7071 0.7071 -0.6242 1751.7775)" class="st2" width="136" height="136"/>
		
			<rect x="2142.4" y="904.8" transform="matrix(0.7071 -0.7071 0.7071 0.7071 -40.4648 1847.9653)" class="st4" width="136" height="136"/>
		
			<rect x="2238.6" y="1001" transform="matrix(0.7071 -0.7071 0.7071 0.7071 -80.307 1944.1525)" class="st2" width="136" height="136"/>
		
			<rect x="2334.8" y="904.8" transform="matrix(0.7071 -0.7071 0.7071 0.7071 15.8826 1983.9973)" class="st0" width="136" height="136"/>
		
			<rect x="1950.1" y="520.1" transform="matrix(0.7071 -0.7071 0.7071 0.7071 175.25 1599.2466)" class="st2" width="136" height="136"/>
		
			<rect x="2046.3" y="616.2" transform="matrix(0.7071 -0.7071 0.7071 0.7071 135.4077 1695.4301)" class="st0" width="136" height="136"/>
		
			<rect x="2142.4" y="712.4" transform="matrix(0.7071 -0.7071 0.7071 0.7071 95.5629 1791.6198)" class="st3" width="136" height="136"/>
		
			<rect x="2238.6" y="808.6" transform="matrix(0.7071 -0.7071 0.7071 0.7071 55.7232 1887.8094)" class="st2" width="136" height="136"/>
		
			<rect x="2334.8" y="712.4" transform="matrix(0.7071 -0.7071 0.7071 0.7071 151.9103 1927.6517)" class="st0" width="136" height="136"/>
		
			<rect x="2142.4" y="520.1" transform="matrix(0.7071 -0.7071 0.7071 0.7071 231.593 1735.2767)" class="st1" width="136" height="136"/>
		
			<rect x="2238.6" y="616.2" transform="matrix(0.7071 -0.7071 0.7071 0.7071 191.7551 1831.462)" class="st2" width="136" height="136"/>
		
			<rect x="2334.8" y="520.1" transform="matrix(0.7071 -0.7071 0.7071 0.7071 287.9404 1871.3087)" class="st0" width="136" height="136"/>
		
			<rect x="988.2" y="135.3" transform="matrix(0.7071 -0.7071 0.7071 0.7071 165.5663 806.3936)" class="st0" width="136" height="136"/>
		
			<rect x="988.2" y="-57" transform="matrix(0.7071 -0.7071 0.7071 0.7071 301.5921 750.0524)" class="st0" width="136" height="136"/>
		
			<rect x="1084.4" y="39.1" transform="matrix(0.7071 -0.7071 0.7071 0.7071 261.7498 846.2358)" class="st1" width="136" height="136"/>
		
			<rect x="988.2" y="-249.4" transform="matrix(0.7071 -0.7071 0.7071 0.7071 437.6241 693.705)" class="st0" width="136" height="136"/>
		
			<rect x="892" y="-153.2" transform="matrix(0.7071 -0.7071 0.7071 0.7071 341.4344 653.8646)" class="st1" width="136" height="136"/>
		
			<rect x="892" y="39.1" transform="matrix(0.7071 -0.7071 0.7071 0.7071 205.4043 710.2101)" class="st2" width="136" height="136"/>
		
			<rect x="892" y="231.5" transform="matrix(0.7071 -0.7071 0.7071 0.7071 69.3742 766.5556)" class="st0" width="136" height="136"/>
		
			<rect x="892" y="423.9" transform="matrix(0.7071 -0.7071 0.7071 0.7071 -66.6559 822.9011)" class="st0" width="136" height="136"/>
		
			<rect x="892" y="616.3" transform="matrix(0.7071 -0.7071 0.7071 0.7071 -202.686 879.2466)" class="st3" width="136" height="136"/>
		
			<rect x="892" y="808.6" transform="matrix(0.7071 -0.7071 0.7071 0.7071 -338.7161 935.5921)" class="st2" width="136" height="136"/>
		
			<rect x="892" y="1001" transform="matrix(0.7071 -0.7071 0.7071 0.7071 -474.7462 991.9376)" class="st3" width="136" height="136"/>
		
			<rect x="892" y="1193.4" transform="matrix(0.7071 -0.7071 0.7071 0.7071 -610.7763 1048.2831)" class="st0" width="136" height="136"/>
		
			<rect x="1084.4" y="-153.2" transform="matrix(0.7071 -0.7071 0.7071 0.7071 397.7818 789.8885)" class="st2" width="136" height="136"/>
		
			<rect x="1180.5" y="-57" transform="matrix(0.7071 -0.7071 0.7071 0.7071 357.9377 886.08)" class="st3" width="136" height="136"/>
		
			<rect x="1180.5" y="-249.4" transform="matrix(0.7071 -0.7071 0.7071 0.7071 493.9696 829.7326)" class="st0" width="136" height="136"/>
		
			<rect x="1276.7" y="-153.2" transform="matrix(0.7071 -0.7071 0.7071 0.7071 454.1291 925.9205)" class="st1" width="136" height="136"/>
		
			<rect x="1372.9" y="-249.4" transform="matrix(0.7071 -0.7071 0.7071 0.7071 550.3126 965.7628)" class="st4" width="136" height="136"/>
		
			<rect x="988.2" y="327.7" transform="matrix(0.7071 -0.7071 0.7071 0.7071 29.5441 862.7544)" class="st4" width="136" height="136"/>
		
			<rect x="1084.4" y="423.9" transform="matrix(0.7071 -0.7071 0.7071 0.7071 -10.2938 958.9397)" class="st3" width="136" height="136"/>
		
			<rect x="1084.4" y="231.5" transform="matrix(0.7071 -0.7071 0.7071 0.7071 125.7338 902.5941)" class="st2" width="136" height="136"/>
		
			<rect x="1180.6" y="327.7" transform="matrix(0.7071 -0.7071 0.7071 0.7071 85.8897 998.782)" class="st1" width="136" height="136"/>
		
			<rect x="1276.8" y="423.9" transform="matrix(0.7071 -0.7071 0.7071 0.7071 46.0492 1094.9698)" class="st0" width="136" height="136"/>
		
			<rect x="1180.6" y="135.3" transform="matrix(0.7071 -0.7071 0.7071 0.7071 221.9217 942.4346)" class="st0" width="136" height="136"/>
		
			<rect x="1276.8" y="231.5" transform="matrix(0.7071 -0.7071 0.7071 0.7071 182.0768 1038.6243)" class="st4" width="136" height="136"/>
		
			<rect x="1372.9" y="327.7" transform="matrix(0.7071 -0.7071 0.7071 0.7071 142.2371 1134.814)" class="st2" width="136" height="136"/>
		
			<rect x="1469.1" y="423.9" transform="matrix(0.7071 -0.7071 0.7071 0.7071 102.3948 1230.9974)" class="st1" width="136" height="136"/>
		
			<rect x="1276.8" y="39.1" transform="matrix(0.7071 -0.7071 0.7071 0.7071 318.107 982.2813)" class="st2" width="136" height="136"/>
		
			<rect x="1372.9" y="135.3" transform="matrix(0.7071 -0.7071 0.7071 0.7071 278.269 1078.4666)" class="st0" width="136" height="136"/>
		
			<rect x="1469.1" y="231.5" transform="matrix(0.7071 -0.7071 0.7071 0.7071 238.4224 1174.6519)" class="st3" width="136" height="136"/>
		
			<rect x="1565.3" y="327.7" transform="matrix(0.7071 -0.7071 0.7071 0.7071 198.5801 1270.8441)" class="st1" width="136" height="136"/>
		
			<rect x="1661.5" y="423.9" transform="matrix(0.7071 -0.7071 0.7071 0.7071 158.7422 1367.0294)" class="st4" width="136" height="136"/>
		
			<rect x="1372.9" y="-57.1" transform="matrix(0.7071 -0.7071 0.7071 0.7071 414.2966 1022.121)" class="st3" width="136" height="136"/>
		
			<rect x="1469.1" y="39.1" transform="matrix(0.7071 -0.7071 0.7071 0.7071 374.4525 1118.3088)" class="st1" width="136" height="136"/>
		
			<rect x="1565.3" y="135.3" transform="matrix(0.7071 -0.7071 0.7071 0.7071 334.6121 1214.4967)" class="st4" width="136" height="136"/>
		
			<rect x="1661.5" y="231.5" transform="matrix(0.7071 -0.7071 0.7071 0.7071 294.7698 1310.6838)" class="st3" width="136" height="136"/>
		
			<rect x="1757.7" y="327.7" transform="matrix(0.7071 -0.7071 0.7071 0.7071 254.9257 1406.8717)" class="st4" width="136" height="136"/>
		
			<rect x="1853.9" y="423.9" transform="matrix(0.7071 -0.7071 0.7071 0.7071 215.0852 1503.0596)" class="st1" width="136" height="136"/>
		
			<rect x="1469.1" y="-153.2" transform="matrix(0.7071 -0.7071 0.7071 0.7071 510.4845 1061.9614)" class="st0" width="136" height="136"/>
		
			<rect x="1565.3" y="-57.1" transform="matrix(0.7071 -0.7071 0.7071 0.7071 470.6396 1158.1511)" class="st2" width="136" height="136"/>
		
			<rect x="1661.5" y="39.1" transform="matrix(0.7071 -0.7071 0.7071 0.7071 430.7999 1254.3408)" class="st1" width="136" height="136"/>
		
			<rect x="1757.7" y="135.3" transform="matrix(0.7071 -0.7071 0.7071 0.7071 390.9576 1350.5243)" class="st2" width="136" height="136"/>
		
			<rect x="1853.9" y="231.5" transform="matrix(0.7071 -0.7071 0.7071 0.7071 351.1128 1446.714)" class="st0" width="136" height="136"/>
		
			<rect x="1950.1" y="327.7" transform="matrix(0.7071 -0.7071 0.7071 0.7071 311.273 1542.9037)" class="st3" width="136" height="136"/>
		
			<rect x="2046.3" y="423.9" transform="matrix(0.7071 -0.7071 0.7071 0.7071 271.4307 1639.0872)" class="st2" width="136" height="136"/>
		
			<rect x="1565.3" y="-249.4" transform="matrix(0.7071 -0.7071 0.7071 0.7071 606.6698 1101.8081)" class="st4" width="136" height="136"/>
		
			<rect x="1661.5" y="-153.2" transform="matrix(0.7071 -0.7071 0.7071 0.7071 566.8319 1197.9934)" class="st1" width="136" height="136"/>
		
			<rect x="1757.7" y="-57.1" transform="matrix(0.7071 -0.7071 0.7071 0.7071 526.9852 1294.1787)" class="st0" width="136" height="136"/>
		
			<rect x="1853.9" y="39.1" transform="matrix(0.7071 -0.7071 0.7071 0.7071 487.1429 1390.371)" class="st4" width="136" height="136"/>
		
			<rect x="1950.1" y="135.3" transform="matrix(0.7071 -0.7071 0.7071 0.7071 447.305 1486.5563)" class="st3" width="136" height="136"/>
		
			<rect x="2046.3" y="231.5" transform="matrix(0.7071 -0.7071 0.7071 0.7071 407.4583 1582.7416)" class="st2" width="136" height="136"/>
		
			<rect x="2142.4" y="327.7" transform="matrix(0.7071 -0.7071 0.7071 0.7071 367.616 1678.9338)" class="st0" width="136" height="136"/>
		
			<rect x="2238.6" y="423.9" transform="matrix(0.7071 -0.7071 0.7071 0.7071 327.7781 1775.1191)" class="st0" width="136" height="136"/>
		
			<rect x="2334.8" y="327.7" transform="matrix(0.7071 -0.7071 0.7071 0.7071 423.9634 1814.9658)" class="st0" width="136" height="136"/>
		
			<rect x="1757.7" y="-249.4" transform="matrix(0.7071 -0.7071 0.7071 0.7071 663.0154 1237.8357)" class="st1" width="136" height="136"/>
		
			<rect x="1853.9" y="-153.2" transform="matrix(0.7071 -0.7071 0.7071 0.7071 623.1749 1334.0236)" class="st2" width="136" height="136"/>
		
			<rect x="1950.1" y="-57.1" transform="matrix(0.7071 -0.7071 0.7071 0.7071 583.3326 1430.2107)" class="st1" width="136" height="136"/>
		
			<rect x="2046.3" y="39.1" transform="matrix(0.7071 -0.7071 0.7071 0.7071 543.4885 1526.3986)" class="st2" width="136" height="136"/>
		
			<rect x="2142.4" y="135.3" transform="matrix(0.7071 -0.7071 0.7071 0.7071 503.6479 1622.5864)" class="st4" width="136" height="136"/>
		
			<rect x="2238.6" y="231.5" transform="matrix(0.7071 -0.7071 0.7071 0.7071 463.8057 1718.7736)" class="st2" width="136" height="136"/>
		
			<rect x="2334.8" y="135.3" transform="matrix(0.7071 -0.7071 0.7071 0.7071 559.9954 1758.6184)" class="st0" width="136" height="136"/>
		
			<rect x="1950.1" y="-249.4" transform="matrix(0.7071 -0.7071 0.7071 0.7071 719.3627 1373.8677)" class="st2" width="136" height="136"/>
		
			<rect x="2046.3" y="-153.2" transform="matrix(0.7071 -0.7071 0.7071 0.7071 679.5204 1470.0511)" class="st0" width="136" height="136"/>
		
			<rect x="2142.4" y="-57.1" transform="matrix(0.7071 -0.7071 0.7071 0.7071 639.6756 1566.2408)" class="st3" width="136" height="136"/>
		
			<rect x="2238.6" y="39.1" transform="matrix(0.7071 -0.7071 0.7071 0.7071 599.8359 1662.4305)" class="st2" width="136" height="136"/>
		
			<rect x="2334.8" y="-57.1" transform="matrix(0.7071 -0.7071 0.7071 0.7071 696.023 1702.2728)" class="st0" width="136" height="136"/>
		
			<rect x="2142.4" y="-249.4" transform="matrix(0.7071 -0.7071 0.7071 0.7071 775.7057 1509.8978)" class="st1" width="136" height="136"/>
		
			<rect x="2238.6" y="-153.2" transform="matrix(0.7071 -0.7071 0.7071 0.7071 735.8679 1606.0831)" class="st2" width="136" height="136"/>
		
			<rect x="2334.8" y="-249.4" transform="matrix(0.7071 -0.7071 0.7071 0.7071 832.0531 1645.9298)" class="st0" width="136" height="136"/>
	</g>
</g>
</svg>
