<svg id="New_Bg_SHapes" data-name="New Bg SHapes" xmlns="http://www.w3.org/2000/svg" viewBox="0 0 1221.69 1014.66"><defs><style>.cls-1{fill:none;stroke:#bcff9e;stroke-miterlimit:10;stroke-width:100px;}.cls-2{fill:#61ee21;}</style></defs><title>about_bg</title><g id="Green_Leave" data-name="Green Leave"><path class="cls-1" d="M266.16,929.35c167.89-99.17,440.9-104.94,565.63-310.74C863.65,566,879.4,479.68,964,389.54c78.3-83.42,164.29-105.47,164.06-165.09-.2-52.93-66.14-92-75.41-97.28C977.51,84,914.49,122,692.86,123.29c-13.24.08-30.24.68-53.36-.44-94.76-4.59-149.81-25.42-218.56-20.4C184.56,119.73-14.53,400.3,266.16,929.35Z"/><path class="cls-2" d="M238.73,924.35C338.54,835.76,666,844.14,801.79,596.11,831.31,542.19,849.4,457.18,934,367c78.3-83.42,164.29-105.47,164.06-165.09-.2-52.93-66.14-92-75.41-97.28-75.15-43.2-138.17-5.14-359.8-3.88-13.24.08-30.24.68-53.36-.44C514.74,95.76,459.69,74.93,390.94,80,154.56,97.23-41.95,395.3,238.73,924.35Z"/></g></svg>