<svg xmlns="http://www.w3.org/2000/svg" width="15.768" height="13.381" viewBox="0 0 15.768 13.381">
  <title>ag_logo_small2_1</title>
  <g>
    <g>
      <polygon points="10.718 0 8.477 0 8.478 0.004 13.527 13.378 15.768 13.378 10.718 0"/>
      <polygon points="7.696 0 5.05 0.004 0 13.381 2.241 13.381 6.374 2.433 6.764 3.466 3.021 13.381 5.262 13.381 7.885 6.434 10.506 13.378 12.746 13.378 7.696 0"/>
    </g>
    <path d="M9.055,10.578a2.514,2.514,0,0,1-1.17.229,2.511,2.511,0,0,1-1.17-.229l-.11.291a2.027,2.027,0,0,0,1.28.314,2.021,2.021,0,0,0,1.279-.314Z"/>
  </g>
</svg>
