<svg xmlns="http://www.w3.org/2000/svg" viewBox="0 0 380.81 323.6"><title>ag_logo_small2</title><g id="Layer_6" data-name="Layer 6"><polygon points="171.94 0 135.78 0 117.74 0 0 323.6 54.2 323.6 153.86 49.7 161.86 71.68 73.08 323.6 127.29 323.6 187.91 143.29 253.52 323.6 307.72 323.6 189.98 0 171.94 0"/><polygon points="263.07 0 208.86 0 326.6 323.6 380.81 323.6 263.07 0"/><path id="thin" d="M217.25,250.44c-5.86,4.44-16.67,7.48-29.27,7.48-11.37,0-21.32-2.47-27.46-6.22l-3.62,10.74c5.26,5.22,17.18,8.87,31.08,8.87,15.85,0,29.05-4.75,32.81-11.15Z"/></g></svg>