<?xml version="1.0" encoding="utf-8"?>
<!-- Generator: Adobe Illustrator 23.0.1, SVG Export Plug-In . SVG Version: 6.00 Build 0)  -->
<svg version="1.1" id="Layer_1" xmlns="http://www.w3.org/2000/svg" xmlns:xlink="http://www.w3.org/1999/xlink" x="0px" y="0px"
	 viewBox="0 0 942.4 836.9" style="enable-background:new 0 0 942.4 836.9;" xml:space="preserve">
<style type="text/css">
	.st0{fill:#F40505;}
</style>
<title>ag_logo3</title>
<g id="A_logo">
	<path d="M289,607v-99h73.8c7.3,0,12.6,2.1,15.8,6.4c3.3,4.3,4.9,10.6,4.9,19l0.1,44.7c0,10-1.6,17.3-5,21.9c-3.3,4.6-8.8,7-16.4,7
		L289,607z M355.7,595.3h5c2.8,0,4.8-0.9,6-2.7s1.9-5.1,1.9-9.9l-0.1-48.9c0-5.1-0.6-8.8-1.9-11c-1.3-2.2-3.4-3.3-6.5-3.3h-4.4
		L355.7,595.3z"/>
	<path d="M391.8,607v-99H425v13h-18.1v28.8h17.2v12.7h-17.2V594h18.8v13L391.8,607z"/>
	<path d="M430.3,579.2v-8.8h14.3v10c0,5.5,0.5,9.4,1.4,11.6c0.8,2.2,3,3.5,5.3,3.3c2.6,0,4.3-0.9,5.1-2.8s1.3-4.8,1.3-9
		c0.1-3.8-0.7-7.5-2.3-10.9c-1.9-3.6-4.3-6.9-7.1-9.7l-7.3-7.6c-3.2-3.3-5.9-7-8-11.1c-2-4.1-2.9-8.7-2.8-13.3
		c0-8.2,1.6-14.2,4.7-18.2c3.1-4,8.6-6,16.3-6c7.7,0,12.9,2.3,15.6,7c2.7,4.7,4.1,11.4,4.1,20.3v6.1h-13.9v-7.1
		c0-4.8-0.4-8.2-1.2-10.3c-0.7-2-2.6-3.3-4.8-3.1c-2.4,0-4,0.8-5.1,2.4s-1.5,3.9-1.5,7.1c-0.1,2.6,0.4,5.2,1.6,7.5
		c1.6,2.6,3.5,5,5.7,7.2l8.2,8.8c3.8,4,6.9,8.5,9.2,13.4c2.1,4.7,3.2,9.7,3.1,14.8c0,9.3-1.6,16.1-4.7,20.5s-8.6,6.6-16.3,6.6
		c-7.8,0-13.2-2.5-16.3-7.4S430.3,588.7,430.3,579.2z"/>
	<path d="M478.3,607v-99h15.1v99H478.3z"/>
	<path d="M522,608c-5.8,0.2-11.3-2.6-14.6-7.3c-3.5-4.9-5.3-12.4-5.3-22.6v-43c0-9.1,1.8-16.1,5.4-20.9c3.6-4.8,9.3-7.2,17.1-7.2
		c9.7,0,15.9,3.6,18.5,10.8c1.6,4.4,2.4,10.3,2.4,17.8v7h-14.1v-10.3c0-4.5-0.5-7.7-1.4-9.6s-2.8-2.8-5.4-2.8
		c-2.4-0.2-4.6,1.1-5.6,3.3c-1.1,2.2-1.6,6.1-1.6,11.7v42.9c0,6.5,0.5,11,1.5,13.6c0.8,2.4,3.2,4,5.7,3.8c2.7,0.1,5.1-1.6,6-4.1
		c1.2-2.7,1.8-7.4,1.8-13.8V564h-7.6v-11h20.8v54h-6.8l-2.3-9.7c-0.7,3.2-2.5,6-5.2,7.9C528.5,607.1,525.3,608.1,522,608z"/>
	<path d="M554.2,607v-99H566l21,59.4l-1.1-27v-32.3h31.7l37.2,99h-66.1l-21.5-61.5l0.8,26V607H554.2z"/>
	<polygon points="19.6,824 370.1,12.9 556.6,12.9 206.1,824 	"/>
	<path d="M537,25.8L197.6,811.1H39.2L378.6,25.8H537z M576.2,0H361.6l-6.7,15.5L15.5,800.9L0,836.9h214.5l6.7-15.6L560.6,36L576.2,0
		z"/>
	<polygon class="st0" points="736.3,824 385.8,12.9 572.3,12.9 922.8,824 	"/>
	<path d="M563.8,25.8l339.4,785.3H744.8L405.4,25.8H563.8z M580.7,0H366.2l15.5,36l339.4,785.3l6.7,15.6h214.5l-15.5-36L587.5,15.5
		L580.7,0z"/>
</g>
</svg>
