<svg xmlns="http://www.w3.org/2000/svg" viewBox="0 0 441.43 296.09"><defs><style>.cls-1{fill:#ffcb21;}.cls-2{fill:#f90;}.cls-3{fill:#1e2d3a;}.cls-4{fill:#fff;}</style></defs><title>day_logo_white</title><g id="Layer_2" data-name="Layer 2"><g id="circles"><path class="cls-1" d="M230.7,43.91A132.4,132.4,0,0,0,49.73,237C77.34,228.91,188.81,96.08,230.7,43.91Z"/><path class="cls-2" d="M46.43,249.76,41.67,245A142.85,142.85,0,0,1,0,143.76C0,64.49,64.49,0,143.76,0a143.64,143.64,0,0,1,94.4,35.35l8.22,7.16L239.55,51c-22.15,27.6-60.65,56.87-96.24,96.53-69.2,77.12-84.6,98.63-90.4,100.33ZM143.76,22.7A121.06,121.06,0,0,0,52.18,222.94c8.35,8.33,29.31-23.47,74.23-73.54,31.71-35.33,65.76-76,88.28-103.74A121,121,0,0,0,143.76,22.7Z"/><path class="cls-2" d="M11.51,280.13h4.86c3.23,0,5.55,1,5.55,3.86a3.41,3.41,0,0,1-2.71,3.39v.1c2.27.39,3.52,1.6,3.52,3.72,0,3.13-2.5,4.6-6,4.6H11.51Zm4.61,6.44c2.19,0,3.09-.79,3.09-2.25s-1-2-3-2h-1.9v4.22Zm.36,7c2.3,0,3.54-.79,3.54-2.57s-1.19-2.32-3.54-2.32h-2.2v4.89Z"/><path class="cls-2" d="M37.51,289.82v-9.69h2.8V290c0,2.54,1,3.63,2.71,3.63s2.76-1.09,2.76-3.63v-9.9h2.69v9.69c0,4.28-2,6.27-5.45,6.27S37.51,294.1,37.51,289.82Z"/><path class="cls-2" d="M64.18,293.46H68v-11H64.18v-2.34H74.51v2.34H70.73v11h3.78v2.34H64.18Z"/><path class="cls-2" d="M91.39,280.13h2.77v13.33h7.35v2.34H91.39Z"/><path class="cls-2" d="M116.75,280.13h4.1c4.62,0,7.4,2.59,7.4,7.76s-2.78,7.91-7.25,7.91h-4.25Zm3.93,13.41c3,0,4.7-1.79,4.7-5.65s-1.71-5.5-4.7-5.5h-1.15v11.15Z"/><path class="cls-2" d="M143.24,293.46H147v-11h-3.78v-2.34h10.33v2.34H149.8v11h3.77v2.34H143.24Z"/><path class="cls-2" d="M169.35,280.13h2.92l4.15,8.81,1.42,3.34h.06c-.11-1.6-.37-3.58-.37-5.33v-6.82h2.65V295.8h-2.92L173.11,287l-1.42-3.34h-.07c.12,1.67.38,3.55.38,5.29v6.86h-2.65Z"/><path class="cls-2" d="M195.09,288c0-5.15,3-8.16,7.1-8.16a6,6,0,0,1,4.45,1.95l-1.55,1.73a3.73,3.73,0,0,0-2.9-1.26c-2.49,0-4.21,2.15-4.21,5.66s1.5,5.73,4.26,5.73a3.1,3.1,0,0,0,2.1-.68v-3.39h-2.68v-2.27h5.21v6.91a7,7,0,0,1-4.79,1.86C198.11,296.09,195.09,293.21,195.09,288Z"/><path class="cls-3" d="M222.46,288.37a2.37,2.37,0,1,1,2.37,2.33A2.3,2.3,0,0,1,222.46,288.37Z"/><path class="cls-2" d="M238.34,293.8l1.61-1.92a6.64,6.64,0,0,0,4.38,1.78c1.82,0,2.79-.8,2.79-1.89,0-1.4-1.08-1.78-2.61-2.42l-2.15-.94c-1.64-.64-3.34-1.85-3.34-4.15,0-2.49,2.24-4.41,5.44-4.41a7.19,7.19,0,0,1,5,2l-1.42,1.77a5.54,5.54,0,0,0-3.73-1.34c-1.48,0-2.49.67-2.49,1.83s1.25,1.66,2.67,2.21l2.06.89c2,.77,3.4,2,3.4,4.22,0,2.55-2.14,4.67-5.8,4.67A8.52,8.52,0,0,1,238.34,293.8Z"/><path class="cls-2" d="M265.76,280.13h10v2.34h-7.26v4h6.15v2.34h-6.15v4.64H276v2.34H265.76Z"/><path class="cls-2" d="M291.66,280.13h5.23c3.25,0,5.77,1.15,5.77,4.66,0,3.36-2.52,4.89-5.77,4.89h-2.44v6.12h-2.79Zm4.94,7.32c2.15,0,3.32-.9,3.32-2.66s-1.17-2.43-3.32-2.43h-2.15v5.09Zm1.78-.18,4.89,8.53h-3.13l-3.78-6.87Z"/><path class="cls-2" d="M316.67,280.13h3l2.2,7.87c.5,1.78.85,3.32,1.37,5.09h.1c.52-1.77.89-3.31,1.38-5.09l2.17-7.87h2.85l-4.84,15.67h-3.31Z"/><path class="cls-2" d="M344.38,293.46h3.77v-11h-3.77v-2.34h10.33v2.34h-3.78v11h3.78v2.34H344.38Z"/><path class="cls-2" d="M370.14,288c0-5.12,3.11-8.16,7.25-8.16a6.29,6.29,0,0,1,4.49,1.95l-1.56,1.73a4,4,0,0,0-2.93-1.26c-2.6,0-4.39,2.15-4.39,5.66s1.79,5.73,4.46,5.73a4.12,4.12,0,0,0,3.16-1.55l1.55,1.69a6.26,6.26,0,0,1-5,2.29C373.3,296.09,370.14,293.21,370.14,288Z"/><path class="cls-2" d="M397.53,280.13h10v2.34h-7.25v4h6.14v2.34h-6.14v4.64h7.49v2.34H397.53Z"/><path class="cls-2" d="M422.82,293.8l1.62-1.92a6.61,6.61,0,0,0,4.37,1.78c1.83,0,2.79-.8,2.79-1.89,0-1.4-1.07-1.78-2.6-2.42l-2.15-.94c-1.65-.64-3.34-1.85-3.34-4.15,0-2.49,2.24-4.41,5.43-4.41a7.2,7.2,0,0,1,5,2l-1.42,1.77a5.56,5.56,0,0,0-3.73-1.34c-1.49,0-2.49.67-2.49,1.83s1.25,1.66,2.67,2.21l2.06.89c2,.77,3.4,2,3.4,4.22,0,2.55-2.14,4.67-5.8,4.67A8.55,8.55,0,0,1,422.82,293.8Z"/><polygon class="cls-4" points="248.86 5.14 100.55 170.58 100.55 150.06 68.65 150.06 68.65 206.16 14.94 266.08 52.2 266.08 246.72 49.09 320.9 150.06 355.32 150.06 248.86 5.14"/><path class="cls-4" d="M241.15,180.41c-9.81-9.24-23.26-13.93-40-13.93H156.91v99.71h41.62c18.17,0,32.42-4.44,42.36-13.2S256,231.88,256,216.51C256,201.85,251,189.7,241.15,180.41Zm-55.62,8.46h12.59c9.29,0,16.45,2.46,21.29,7.29s7.29,11.52,7.29,20.21c0,8.39-2.36,14.92-7.22,20s-11.86,7.46-21.09,7.46H185.53Z"/><path class="cls-4" d="M289.18,166.48l-40.27,99.71h30.47l7.07-18.7h39l7.8,18.7h30.92l-44.29-99.71Zm27.24,59.43H294.6L305,198.47Z"/><polygon class="cls-4" points="406.61 166.48 387.31 194.32 368.08 166.48 333.17 166.48 372.99 220.33 372.99 266.19 401.61 266.19 401.61 220.36 441.43 166.48 406.61 166.48"/></g></g></svg>