<?xml version="1.0" encoding="utf-8"?>
<!-- Generator: Adobe Illustrator 23.0.1, SVG Export Plug-In . SVG Version: 6.00 Build 0)  -->
<svg version="1.1" id="New_Bg_SHapes" xmlns="http://www.w3.org/2000/svg" xmlns:xlink="http://www.w3.org/1999/xlink" x="0px"
	 y="0px" viewBox="0 0 1221.7 1014.7" style="enable-background:new 0 0 1221.7 1014.7;" xml:space="preserve">
<style type="text/css">
	.st0{fill:#FFABBD;}
	.st1{fill:#E61E49;}
</style>
<title>home_bg</title>
<g id="red_x5F_platelet">
	<path class="st0" d="M983.6,821.7c96.8-98.8,198.7-269.5,159.3-413.3c-37.6-137-189-170.6-300.6-226.9
		C625.5,72.1,395.6-62,205.7,174.8c-148.9,185.8-91.7,484,47.1,658.3C434.1,1060.9,794.8,1014.4,983.6,821.7z"/>
	<path class="st1" d="M927.3,775.8c82.9-84.6,170.3-230.9,136.4-354c-32.2-117.4-161.9-146.1-257.6-194.4
		c-185.7-93.7-382.7-208.6-545.4-5.7c-127.6,159.1-78.5,414.7,40.4,564C456.5,980.8,765.5,941,927.3,775.8z"/>
</g>
</svg>
