<svg id="bg_shapes" data-name="bg shapes" xmlns="http://www.w3.org/2000/svg" viewBox="0 0 1221.69 1014.66"><defs><style>.cls-1,.cls-2{fill:aqua;}.cls-1{opacity:0.5;}</style></defs><title>project_bg</title><path class="cls-1" d="M331.06,791.92c44.46,260.2,449.44,237.44,449.4-31.75,0-111.13-123-240.49-87.5-348.06,29.68-89.94,163.5-91.52,194.69-189.75,24.8-78.07-10.8-172.7-92.71-196.31-53.08-15.31-134.11-1.28-172,41.42-41,46.2-21.85,106.41-9.52,159.62,25.15,108.62,41.59,213.68-54.59,289C467.6,587.64,306.44,647.8,331.06,791.92Z"/><path class="cls-2" d="M372.89,785c36.32,226.85,385.29,192.07,387.7-28.08,1.2-109.21-89.75-203.83-84.16-310.47,5.16-98.67,124.46-126.26,166.66-205.23,49.37-92.4-.7-197.87-110.49-194.09C599.8,51.67,613.24,165.23,631.46,260.59c21.37,111.82,28.88,191.14-63.87,266.58C487.53,592.27,353.1,661.45,372.89,785Z"/></svg>