<svg xmlns="http://www.w3.org/2000/svg" width="1221.694" height="1014.662" viewBox="0 0 1221.694 1014.662">
  <defs>
    <style>
      .a {
        fill: none;
        stroke: #bdffff;
        stroke-miterlimit: 10;
        stroke-width: 50px;
      }

      .b {
        fill: aqua;
      }

      .c {
        fill: #bdffff;
      }
    </style>
  </defs>
  <title>project_bg_small</title>
  <g>
    <path class="a" d="M713.667,490.885a122.064,122.064,0,0,1-26.274-200.412,142.53,142.53,0,1,0-186.233,0,122.065,122.065,0,0,1-26.275,200.412A257.047,257.047,0,0,0,337.2,718.623C337.2,860.6,452.3,975.7,594.276,975.7S851.349,860.6,851.349,718.623A257.047,257.047,0,0,0,713.667,490.885Z"/>
    <path class="b" d="M713.667,490.885a122.064,122.064,0,0,1-26.274-200.412,142.53,142.53,0,1,0-186.233,0,122.065,122.065,0,0,1-26.275,200.412A257.047,257.047,0,0,0,337.2,718.623C337.2,860.6,452.3,975.7,594.276,975.7S851.349,860.6,851.349,718.623A257.047,257.047,0,0,0,713.667,490.885Z"/>
    <g>
      <circle class="c" cx="380.661" cy="377.019" r="106.418"/>
      <circle class="b" cx="380.661" cy="377.019" r="79.66"/>
      <circle class="c" cx="810.769" cy="376.439" r="106.418"/>
      <circle class="b" cx="810.769" cy="376.439" r="79.66"/>
    </g>
  </g>
</svg>
