<svg xmlns="http://www.w3.org/2000/svg" viewBox="0 0 114.5 159.5"><defs><style>.cls-1,.cls-2{fill:none;stroke:#fff;stroke-miterlimit:10;stroke-width:5px;}.cls-2{stroke-linecap:round;}</style></defs><title>tea</title><g id="Layer_2" data-name="Layer 2"><g id="circles"><path class="cls-1" d="M2.5,60h82a0,0,0,0,1,0,0v86a11,11,0,0,1-11,11h-60a11,11,0,0,1-11-11V60a0,0,0,0,1,0,0Z"/><path class="cls-1" d="M85,67h0a27,27,0,0,1,27,27v10a27,27,0,0,1-27,27h0a0,0,0,0,1,0,0V67A0,0,0,0,1,85,67Z"/><path class="cls-2" d="M19,15.5c0,4.25-6,4.25-6,8.5s6,4.25,6,8.5-6,4.25-6,8.5,6,4.25,6,8.5"/><path class="cls-2" d="M72,15.5c0,4.25-6,4.25-6,8.5s6,4.25,6,8.5-6,4.25-6,8.5,6,4.25,6,8.5"/><path class="cls-2" d="M45.5,2.5c0,5.87-6,5.87-6,11.75s6,5.87,6,11.74-6,5.88-6,11.76,6,5.87,6,11.75"/></g></g></svg>