<?xml version="1.0" encoding="utf-8"?>
<!-- Generator: Adobe Illustrator 23.0.1, SVG Export Plug-In . SVG Version: 6.00 Build 0)  -->
<svg version="1.1" id="Layer_1" xmlns="http://www.w3.org/2000/svg" xmlns:xlink="http://www.w3.org/1999/xlink" x="0px" y="0px"
	 viewBox="0 0 114.5 159.5" style="enable-background:new 0 0 114.5 159.5;" xml:space="preserve">
<style type="text/css">
	.st0{fill:none;stroke:#000000;stroke-width:5;stroke-miterlimit:10;}
	.st1{fill:none;stroke:#000000;stroke-width:5;stroke-linecap:round;stroke-miterlimit:10;}
</style>
<title>tea</title>
<g>
	<g id="circles">
		<path class="st0" d="M2.5,60h82v86c0,6.1-4.9,11-11,11h-60c-6.1,0-11-4.9-11-11V60L2.5,60z"/>
		<path class="st0" d="M85,67L85,67c14.9,0,27,12.1,27,27v10c0,14.9-12.1,27-27,27l0,0l0,0V67L85,67z"/>
		<path class="st1" d="M19,15.5c0,4.3-6,4.3-6,8.5s6,4.3,6,8.5s-6,4.3-6,8.5s6,4.3,6,8.5"/>
		<path class="st1" d="M72,15.5c0,4.3-6,4.3-6,8.5s6,4.3,6,8.5s-6,4.3-6,8.5s6,4.3,6,8.5"/>
		<path class="st1" d="M45.5,2.5c0,5.9-6,5.9-6,11.8s6,5.9,6,11.7s-6,5.9-6,11.8s6,5.9,6,11.8"/>
	</g>
</g>
</svg>
