<svg xmlns="http://www.w3.org/2000/svg" width="612" height="194" viewBox="0 0 612 194">
  <defs>
    <style>
      .a {
        fill: #00a3de;
      }

      .b {
        fill: #e4be52;
      }
    </style>
  </defs>
  <title>mainLogo</title>
  <g>
    <path class="a" d="M346.1,53.311a13.333,13.333,0,0,1,13.42,13.309v23.1H303.525V103.8a4.321,4.321,0,0,0,4.29,4.29h51.7v9.019h-51.7A13.331,13.331,0,0,1,294.506,103.8V66.62a13.329,13.329,0,0,1,13.309-13.309ZM303.525,80.7h46.861V66.62a4.319,4.319,0,0,0-4.29-4.289H307.815a4.318,4.318,0,0,0-4.29,4.289Z"/>
    <path class="a" d="M422.653,53.311A13.331,13.331,0,0,1,435.964,66.62v50.49h-9.021V66.62a4.316,4.316,0,0,0-4.29-4.289H384.374a4.315,4.315,0,0,0-3.08,1.264,4.047,4.047,0,0,0-1.32,3.025v50.49h-9.02v-63.8Z"/>
    <path class="a" d="M484.033,62.331h-27.61V103.8a4.321,4.321,0,0,0,4.29,4.29h23.32v9.019h-23.32a12.762,12.762,0,0,1-9.46-3.905,12.9,12.9,0,0,1-3.85-9.4V32.41h9.02v20.9h27.61Z"/>
    <path class="a" d="M505.593,53.311h38.28a13.331,13.331,0,0,1,13.42,13.309V103.8a13.333,13.333,0,0,1-13.42,13.309h-38.28a13.333,13.333,0,0,1-13.31-13.309V66.62a13.331,13.331,0,0,1,13.31-13.309Zm38.28,9.02h-38.28a4.316,4.316,0,0,0-4.29,4.289V103.8a4.319,4.319,0,0,0,4.29,4.29h38.28a4.323,4.323,0,0,0,4.29-4.29V66.62a4.319,4.319,0,0,0-4.29-4.289Z"/>
    <path class="a" d="M115.145,53.422a12.774,12.774,0,0,1,9.459,3.905,12.917,12.917,0,0,1,3.85,9.405v50.491h-8.91V66.732a4.047,4.047,0,0,0-1.32-3.025,4.319,4.319,0,0,0-3.079-1.265H88.634a4.319,4.319,0,0,0-4.29,4.29v50.491h-9.13V66.732a4.319,4.319,0,0,0-4.29-4.29H44.3a4.319,4.319,0,0,0-4.29,4.29v50.491h-9.13v-63.8Z"/>
    <path class="a" d="M287.6,133.391a4.446,4.446,0,0,1-3.162-1.266,4.139,4.139,0,0,1-1.264-3.024V37.91h-12.21L238.076,77.07,205.187,37.91h-12.21v66a4.132,4.132,0,0,1-1.265,3.026,4.373,4.373,0,0,1-3.131,1.264H150.3a4.318,4.318,0,0,1-4.29-4.29v-50.6h-9.02v50.6a13.334,13.334,0,0,0,13.31,13.311h42.57V129.1a4.321,4.321,0,0,1-4.29,4.29H6.75v9.129H188.581a12.769,12.769,0,0,0,9.46-3.905,13.043,13.043,0,0,0,3.85-9.514V53.642h0V48.03l36.189,43.011L274.267,48.03v68.018h0V129.1a13.042,13.042,0,0,0,3.849,9.514,12.839,12.839,0,0,0,9.491,3.906H581.427v-9.13Z"/>
  </g>
  <polygon class="b" points="205.541 31.356 238.157 69.333 270.326 31.356 261.837 31.356 238.157 59.281 214.477 31.356 205.541 31.356"/>
</svg>
