<?xml version="1.0" encoding="utf-8"?>
<!-- Generator: Adobe Illustrator 23.0.1, SVG Export Plug-In . SVG Version: 6.00 Build 0)  -->
<svg version="1.1" id="Layer_1" xmlns="http://www.w3.org/2000/svg" xmlns:xlink="http://www.w3.org/1999/xlink" x="0px" y="0px"
	 viewBox="0 0 600 600" style="enable-background:new 0 0 600 600;" xml:space="preserve">
<style type="text/css">
	.st0{fill:#00ACEB;}
	.st1{fill:#FFAA21;}
</style>
<title>mIcon</title>
<polygon class="st0" points="158,138.2 302,306.9 444,138.2 494.3,138.2 494.3,477.5 456.8,477.5 456.8,181.6 302,365.1 
	143.2,180.6 143.2,477.5 105.7,477.5 105.7,138.2 "/>
<polygon class="st1" points="158,108.6 302,276.3 444,108.6 406.5,108.6 302,231.9 197.4,108.6 "/>
<path class="st0" d="M521.4,575.8H78.6c-36.6,0-66.2-29.7-66.2-66.2V90.4c0-36.6,29.7-66.2,66.2-66.2h442.9
	c36.6,0,66.2,29.7,66.2,66.2v419.2C587.6,546.2,558,575.8,521.4,575.8z M78.6,63.6c-14.8,0-26.8,12-26.8,26.8v419.2
	c0,14.8,12,26.8,26.8,26.8h442.9c14.8,0,26.8-12,26.8-26.8V90.4c0-14.8-12-26.8-26.8-26.8L78.6,63.6z"/>
</svg>
