<?xml version="1.0" encoding="utf-8"?>
<!-- Generator: Adobe Illustrator 23.0.1, SVG Export Plug-In . SVG Version: 6.00 Build 0)  -->
<svg version="1.1" id="Layer_1" xmlns="http://www.w3.org/2000/svg" xmlns:xlink="http://www.w3.org/1999/xlink" x="0px" y="0px"
	 viewBox="0 0 228.9 228.9" style="enable-background:new 0 0 228.9 228.9;" xml:space="preserve">
<style type="text/css">
	.st0{fill:#FFFFFF;}
</style>
<title>logo</title>
<g>
	<g id="B-Card">
		<path class="st0" d="M114.5,0C51.2-0.1,0,51.1-0.1,114.4S51,228.9,114.3,228.9c26.7,0,52.5-9.3,73-26.2v-88.2l0,0
			c0-40.2-32.6-72.9-72.9-72.9s-72.9,32.6-72.9,72.9s32.6,72.9,72.9,72.9c19.6,0,38.3-7.9,52-21.9v26.9
			c-43,28.7-101.1,17.2-129.9-25.8s-17-101.3,26-130s101.1-17.2,129.9,25.8c10.3,15.4,15.8,33.5,15.8,52l0,0l0,0v65.8l0,0v33
			l20.8,10.5V114.5C228.9,51.2,177.7,0,114.5,0z M114.5,166.5c-28.7,0-52-23.3-52-52s23.3-52,52-52s52,23.3,52,52l0,0
			C166.4,143.2,143.2,166.4,114.5,166.5z"/>
	</g>
</g>
</svg>
