<?xml version="1.0" encoding="utf-8"?>
<!-- Generator: Adobe Illustrator 23.0.2, SVG Export Plug-In . SVG Version: 6.00 Build 0)  -->
<svg version="1.1" id="Layer_1" xmlns="http://www.w3.org/2000/svg" xmlns:xlink="http://www.w3.org/1999/xlink" x="0px" y="0px"
	 viewBox="0 0 421.2 421.2" style="enable-background:new 0 0 421.2 421.2;" xml:space="preserve">
<style type="text/css">
	.st0{fill:#DBF6FF;}
</style>
<title>Asset 2</title>
<g>
	<g id="Agile_Logo">
		<path class="st0" d="M210.6,0C94.3,0,0,94.3,0,210.6s94.3,210.6,210.6,210.6c48.9,0,96.3-17.1,134-48.3V210.6l0,0
			c0-74.1-60-134.1-134-134.2c-74.1,0-134.1,60-134.2,134s60,134.1,134,134.2c36.1,0,70.6-14.5,95.9-40.3v49.4
			c-28.3,19-61.6,29.2-95.7,29.1c-95,0-172.3-77.3-172.3-172.3S115.6,38.3,210.6,38.3s172.3,77.3,172.3,172.3v121l0,0v60.8
			l38.3,19.3V210.6C421.2,94.3,326.9,0,210.6,0z M210.6,306.4c-52.9,0-95.7-42.9-95.7-95.7c0-52.9,42.9-95.7,95.7-95.7
			c52.9,0,95.7,42.9,95.7,95.7l0,0C306.3,263.5,263.5,306.3,210.6,306.4z"/>
	</g>
</g>
</svg>
