<svg xmlns="http://www.w3.org/2000/svg" width="408.193" height="396.641" viewBox="0 0 408.193 396.641">
  <defs>
    <style>
      .a {
        fill: #fe3b1f;
      }
    </style>
  </defs>
  <title>logoorange</title>
  <path class="a" d="M204.1,14.561A183.76,183.76,0,1,0,321.034,339.925V198.32h0a116.992,116.992,0,1,0-33.41,81.807v43.135A149.472,149.472,0,0,1,204.1,348.669c-82.9,0-150.349-67.446-150.349-150.349S121.194,47.972,204.1,47.972,354.445,115.418,354.445,198.32v105.6h0v53.007l33.411,16.845V198.32A183.759,183.759,0,0,0,204.1,14.561Zm0,267.286a83.527,83.527,0,1,1,83.527-83.527A83.622,83.622,0,0,1,204.1,281.847Z"/>
</svg>
