<svg xmlns="http://www.w3.org/2000/svg" width="449" height="400" viewBox="0 0 449 400">
  <defs>
    <style>
      .a {
        fill: #f40505;
      }
    </style>
  </defs>
  <title>3drendering-7</title>
  <g>
    <polygon class="a" points="202.729 9.227 160.094 9.227 138.823 9.227 0 390.773 63.905 390.773 181.411 67.827 190.844 93.743 86.166 390.773 150.083 390.773 221.558 178.175 298.917 390.773 362.822 390.773 223.999 9.227 202.729 9.227"/>
    <polygon class="a" points="310.177 9.227 246.26 9.227 385.083 390.773 449 390.773 310.177 9.227"/>
    <path class="a" d="M256.152,304.512c-6.909,5.235-19.655,8.82-34.511,8.82-13.406,0-25.138-2.912-32.377-7.334L185,318.661c6.2,6.155,20.257,10.458,36.646,10.458,18.688,0,34.252-5.6,38.685-13.146Z"/>
  </g>
</svg>
