<?xml version="1.0" encoding="utf-8"?>
<!-- Generator: Adobe Illustrator 23.0.1, SVG Export Plug-In . SVG Version: 6.00 Build 0)  -->
<svg version="1.1" id="Layer_1" xmlns="http://www.w3.org/2000/svg" xmlns:xlink="http://www.w3.org/1999/xlink" x="0px" y="0px"
	 viewBox="0 0 735.9 606.3" style="enable-background:new 0 0 735.9 606.3;" xml:space="preserve">
<style type="text/css">
	.st0{fill-rule:evenodd;clip-rule:evenodd;fill:#FFFFFF;}
	.st1{fill-rule:evenodd;clip-rule:evenodd;fill:#DB933D;}
	.st2{fill-rule:evenodd;clip-rule:evenodd;fill:#37699F;}
</style>
<g>
	<path class="st0" d="M484.4,173c102,0,185.2,78.4,185.2,174.5s-83.2,174.5-185.2,174.5s-185.2-78.4-185.2-174.5
		S382.4,173,484.4,173L484.4,173z"/>
	<path class="st1" d="M448.2,136.4H144.4c-54.7,4.2-46,77.1-5.7,76.5c37.3-0.6,100.1,0,144.6,0C219.3,273.2,76.6,364.6,14.1,424.1
		c-24.2,23-22.7,89.9,47.5,74.4c26.6-14.6,146.7-112.6,163.1-129.3c8.4,208.2,242.5,305.9,418.5,183.7
		c93.5-65.1,125.8-230,52.6-311.2C638.1,177,533,112.5,407.2,7.7c-20-16.4-80-8.1-59.7,40.9C347.5,48.6,401,102.1,448.2,136.4
		L448.2,136.4z M478.9,209.6c86.6,0,157.7,63.9,157.7,141.6c0,78.2-71.1,141.6-157.7,141.6c-87.2,0-157.7-63.3-157.7-141.6
		C321.2,273.5,391.7,209.6,478.9,209.6z"/>
	<path class="st2" d="M484.4,255.3c53.9,0,97.8,41.4,97.8,92.1s-43.9,92.1-97.8,92.1s-97.8-41.4-97.8-92.1S430.6,255.3,484.4,255.3
		L484.4,255.3z"/>
</g>
</svg>
