<svg xmlns="http://www.w3.org/2000/svg" viewBox="0 0 87.1 65"><defs><style>.cls-1{fill:#cbcfdb;}</style></defs><title>envelope</title><g id="Layer_2" data-name="Layer 2"><g id="Contact_form" data-name="Contact form"><path class="cls-1" d="M87.1,8a8,8,0,0,0-8-8H8A8,8,0,0,0,0,8V57a8,8,0,0,0,8,8H79.1a8,8,0,0,0,8-8ZM8,4H79.1a3.36,3.36,0,0,1,.63.06L46.44,38.85a4,4,0,0,1-5.66.11l-.11-.11L7.37,4.06A3.36,3.36,0,0,1,8,4ZM4,8a4.19,4.19,0,0,1,.27-1.4l21,22L4,54.69ZM79.1,61H8a4,4,0,0,1-2.92-1.28l23-28.23,9.72,10.16a8,8,0,0,0,11.31.24l.24-.24,9.08-9.49L82,59.75A4,4,0,0,1,79.1,61Zm4-6.13L61.18,29.23,82.83,6.6A4.19,4.19,0,0,1,83.1,8Z"/></g></g></svg>