<?xml version="1.0" encoding="utf-8"?>
<!-- Generator: Adobe Illustrator 24.0.2, SVG Export Plug-In . SVG Version: 6.00 Build 0)  -->
<svg version="1.1" id="Layer_1" xmlns="http://www.w3.org/2000/svg" xmlns:xlink="http://www.w3.org/1999/xlink" x="0px" y="0px"
	 viewBox="0 0 362.7 512" style="enable-background:new 0 0 362.7 512;" xml:space="preserve">
<style type="text/css">
	.st0{fill:#E44D26;}
	.st1{fill:#F16529;}
	.st2{fill:#EBEBEB;}
	.st3{fill:#FFFFFF;}
</style>
<title>HTML5 Logo</title>
<polygon class="st0" points="33,470.9 0,100.6 362.7,100.6 329.7,470.8 181.1,512 "/>
<polygon class="st1" points="181.4,480.5 301.4,447.2 329.6,130.9 181.4,130.9 "/>
<polygon class="st2" points="181.4,268.2 121.3,268.2 117.1,221.7 181.4,221.7 181.4,176.3 181.2,176.3 67.5,176.3 68.6,188.5 
	79.7,313.6 181.4,313.6 "/>
<polygon class="st2" points="181.4,386.2 181.2,386.2 130.6,372.5 127.4,336.3 102.8,336.3 81.8,336.3 88.1,407.6 181.2,433.5 
	181.4,433.4 "/>
<path d="M33.7,0h23.1v22.8h21.1V0H101v69H77.9V45.9H56.8V69H33.8L33.7,0L33.7,0z"/>
<path d="M131.4,22.9H111V0h63.7v22.9h-20.3V69h-23.1L131.4,22.9L131.4,22.9z"/>
<path d="M184.9,0h24.1l14.8,24.3L238.5,0h24.1v69h-23V34.8l-15.9,24.5h-0.4l-15.9-24.5V69h-22.6V0z"/>
<path d="M274.1,0h23.1v46.2h32.5V69h-55.5V0z"/>
<polygon class="st3" points="181.2,268.2 181.2,313.6 237.1,313.6 231.9,372.5 181.2,386.2 181.2,433.4 274.3,407.6 275,400 
	285.7,280.4 286.8,268.2 274.5,268.2 "/>
<polygon class="st3" points="181.2,176.3 181.2,204.5 181.2,221.6 181.2,221.7 290.8,221.7 290.8,221.7 290.9,221.7 291.8,211.5 
	293.9,188.5 295,176.3 "/>
</svg>
