<svg xmlns="http://www.w3.org/2000/svg" viewBox="0 0 467.31 320.84"><defs><style>.cls-1{fill:#fff;}.cls-2{fill:#ffcb21;}.cls-3{fill:#f90;}.cls-4{fill:#1e2d3a;}</style></defs><title>day_logo_black</title><g id="Layer_2" data-name="Layer 2"><g id="circles"><rect class="cls-1" width="467.31" height="320.84"/><path class="cls-2" d="M243.08,56.7a132.4,132.4,0,0,0-181,193.06C89.73,241.7,201.2,108.87,243.08,56.7Z"/><path class="cls-3" d="M58.81,262.55l-4.76-4.8a142.85,142.85,0,0,1-41.67-101.2c0-79.27,64.49-143.76,143.76-143.76a143.69,143.69,0,0,1,94.4,35.35l8.22,7.16-6.83,8.5c-22.15,27.6-60.65,56.87-96.24,96.53-69.2,77.12-84.6,98.63-90.4,100.33ZM156.14,35.49A121.06,121.06,0,0,0,64.56,235.73c8.35,8.33,29.31-23.47,74.24-73.54,31.7-35.33,65.75-76,88.28-103.74A121.05,121.05,0,0,0,156.14,35.49Z"/><path class="cls-3" d="M23.89,292.92h4.86c3.23,0,5.56,1,5.56,3.86a3.41,3.41,0,0,1-2.71,3.39v.1c2.26.39,3.52,1.6,3.52,3.72,0,3.13-2.51,4.6-6,4.6H23.89Zm4.61,6.44c2.2,0,3.09-.79,3.09-2.25s-1-2-3-2h-1.9v4.22Zm.37,7c2.29,0,3.53-.79,3.53-2.57s-1.19-2.32-3.53-2.32H26.66v4.89Z"/><path class="cls-3" d="M49.89,302.61v-9.69h2.8v9.9c0,2.54,1.05,3.63,2.71,3.63s2.76-1.09,2.76-3.63v-9.9h2.69v9.69c0,4.28-2,6.27-5.45,6.27S49.89,306.89,49.89,302.61Z"/><path class="cls-3" d="M76.56,306.25h3.77v-11H76.56v-2.34H86.89v2.34H83.12v11h3.77v2.34H76.56Z"/><path class="cls-3" d="M103.77,292.92h2.77v13.33h7.35v2.34H103.77Z"/><path class="cls-3" d="M129.13,292.92h4.1c4.62,0,7.4,2.59,7.4,7.76s-2.78,7.91-7.25,7.91h-4.25Zm3.93,13.41c3,0,4.71-1.79,4.71-5.65s-1.72-5.5-4.71-5.5h-1.15v11.15Z"/><path class="cls-3" d="M155.63,306.25h3.77v-11h-3.77v-2.34H166v2.34h-3.78v11H166v2.34H155.63Z"/><path class="cls-3" d="M181.73,292.92h2.92l4.15,8.81,1.42,3.34h.07c-.12-1.6-.38-3.58-.38-5.33v-6.82h2.65v15.67h-2.92l-4.15-8.81-1.42-3.34H184c.11,1.67.37,3.55.37,5.29v6.86h-2.65Z"/><path class="cls-3" d="M207.47,300.8c0-5.15,3-8.16,7.1-8.16a6,6,0,0,1,4.45,1.95l-1.55,1.73a3.73,3.73,0,0,0-2.9-1.26c-2.49,0-4.21,2.15-4.21,5.66s1.5,5.73,4.26,5.73a3.14,3.14,0,0,0,2.11-.68v-3.39H214v-2.27h5.21V307a7,7,0,0,1-4.79,1.86C210.49,308.88,207.47,306,207.47,300.8Z"/><path class="cls-4" d="M234.84,301.16a2.37,2.37,0,1,1,2.37,2.33A2.3,2.3,0,0,1,234.84,301.16Z"/><path class="cls-3" d="M250.72,306.59l1.62-1.92a6.61,6.61,0,0,0,4.37,1.78c1.82,0,2.79-.8,2.79-1.89,0-1.4-1.07-1.78-2.6-2.42l-2.16-.94c-1.64-.64-3.34-1.85-3.34-4.15,0-2.49,2.24-4.41,5.44-4.41a7.19,7.19,0,0,1,5,2l-1.42,1.77a5.53,5.53,0,0,0-3.72-1.34c-1.49,0-2.49.67-2.49,1.83s1.25,1.66,2.67,2.21l2.05.89c2,.77,3.41,2,3.41,4.22,0,2.55-2.15,4.67-5.81,4.67A8.54,8.54,0,0,1,250.72,306.59Z"/><path class="cls-3" d="M278.14,292.92h10v2.34h-7.26v4h6.15v2.34h-6.15v4.64h7.5v2.34H278.14Z"/><path class="cls-3" d="M304,292.92h5.23c3.25,0,5.78,1.15,5.78,4.66s-2.53,4.89-5.78,4.89h-2.43v6.12H304Zm4.95,7.32c2.14,0,3.31-.9,3.31-2.66s-1.17-2.43-3.31-2.43h-2.15v5.09Zm1.77-.18,4.89,8.53h-3.12l-3.79-6.87Z"/><path class="cls-3" d="M329.06,292.92h3l2.19,7.87c.51,1.78.85,3.32,1.38,5.09h.09c.52-1.77.9-3.31,1.38-5.09l2.17-7.87h2.85l-4.84,15.67h-3.31Z"/><path class="cls-3" d="M356.76,306.25h3.77v-11h-3.77v-2.34h10.33v2.34h-3.77v11h3.77v2.34H356.76Z"/><path class="cls-3" d="M382.52,300.8c0-5.12,3.11-8.16,7.25-8.16a6.32,6.32,0,0,1,4.49,1.95l-1.55,1.73a4,4,0,0,0-2.94-1.26c-2.6,0-4.39,2.15-4.39,5.66s1.79,5.73,4.46,5.73a4.13,4.13,0,0,0,3.16-1.54l1.56,1.68a6.28,6.28,0,0,1-5,2.29C385.68,308.88,382.52,306,382.52,300.8Z"/><path class="cls-3" d="M409.92,292.92h10v2.34H412.7v4h6.15v2.34H412.7v4.64h7.5v2.34H409.92Z"/><path class="cls-3" d="M435.21,306.59l1.61-1.92a6.64,6.64,0,0,0,4.38,1.78c1.82,0,2.79-.8,2.79-1.89,0-1.4-1.08-1.78-2.61-2.42l-2.15-.94c-1.64-.64-3.34-1.85-3.34-4.15,0-2.49,2.24-4.41,5.44-4.41a7.19,7.19,0,0,1,5,2l-1.42,1.77a5.54,5.54,0,0,0-3.73-1.34c-1.48,0-2.49.67-2.49,1.83s1.25,1.66,2.67,2.21l2.06.89c2,.77,3.4,2,3.4,4.22,0,2.55-2.14,4.67-5.8,4.67A8.52,8.52,0,0,1,435.21,306.59Z"/><polygon class="cls-4" points="261.25 17.93 112.93 183.37 112.93 162.85 81.04 162.85 81.04 218.95 27.32 278.87 64.58 278.87 259.11 61.88 333.28 162.85 367.71 162.85 261.25 17.93"/><path class="cls-4" d="M253.54,193.21c-9.82-9.25-23.27-13.94-40-13.94H169.29V279h41.62c18.17,0,32.42-4.44,42.36-13.2s15.12-21.11,15.12-36.48C268.39,214.64,263.4,202.49,253.54,193.21Zm-55.62,8.45H210.5c9.29,0,16.46,2.46,21.3,7.29s7.29,11.52,7.29,20.21c0,8.39-2.37,14.92-7.23,20s-11.86,7.46-21.08,7.46H197.92Z"/><path class="cls-4" d="M301.57,179.27,261.29,279h30.47l7.07-18.7h39l7.8,18.7h30.92l-44.29-99.71ZM328.8,238.7H307l10.38-27.44Z"/><polygon class="cls-4" points="418.99 179.27 399.69 207.11 380.46 179.27 345.55 179.27 385.37 233.12 385.37 278.99 414 278.99 414 233.15 453.82 179.27 418.99 179.27"/></g></g></svg>