<?xml version="1.0" encoding="utf-8"?>
<!-- Generator: Adobe Illustrator 23.0.1, SVG Export Plug-In . SVG Version: 6.00 Build 0)  -->
<svg version="1.1" id="Layer_1" xmlns="http://www.w3.org/2000/svg" xmlns:xlink="http://www.w3.org/1999/xlink" x="0px" y="0px"
	 viewBox="0 0 1438.4 969.7" style="enable-background:new 0 0 1438.4 969.7;" xml:space="preserve">
<style type="text/css">
	.st0{fill:#FFFFFF;}
	.st1{fill:none;}
	.st2{fill:#2E3191;}
	.st3{fill:#25A9E0;}
	.st4{fill:#22B573;}
	.st5{fill:#FAAF40;}
	.st6{fill:#EC1C24;}
	.st7{fill:#1C0F0F;}
</style>
<rect class="st0" width="1438.4" height="969.7"/>
<title>telford_paints_1</title>
<g>
	<g id="Layer_8">
		<path class="st1" d="M445,500.5c-9.4,0-16.8,3.1-22.8,9.5c-4.9,5.3-8.3,12.9-10.2,22.6h66.4c-1.6-9.9-4.9-17.6-9.8-22.8
			C462.7,503.5,455,500.5,445,500.5z"/>
		<path class="st1" d="M1212.6,508.9c-5.3-3.7-11.6-5.7-18.1-5.7c-6.5-0.1-12.9,1.9-18.2,5.8c-5.4,3.9-9.8,9.8-12.9,17.3
			c-3.3,8-4.9,17.5-4.9,28.2c0,11.4,1.7,21,5.2,28.8c3.3,7.4,7.7,13,13.2,16.6c5.3,3.6,11.6,5.5,18,5.4c6.4,0.1,12.7-1.7,18.2-5.2
			c5.4-3.4,9.8-8.8,13.2-16.2c3.5-7.7,5.3-17.6,5.3-29.5c0-11.1-1.8-20.7-5.3-28.5C1222.8,518.5,1218.3,512.7,1212.6,508.9z"/>
		<path class="st1" d="M825.5,600.8c5.6,3.9,12,5.8,19.7,5.8c11.6,0,20.6-4.2,27.4-12.9c7.2-9.1,10.8-22.2,10.8-38.9
			c0-16.9-3.6-30.1-10.8-39.2c-6.8-8.6-15.8-12.8-27.4-12.8c-6.9-0.2-13.8,1.8-19.5,5.7c-5.7,3.9-10,9.5-13.1,17.3
			c-3.3,8.2-5,17.9-5,29s1.7,20.6,4.9,28.7C815.5,591.1,819.9,596.9,825.5,600.8z"/>
		<path class="st2" d="M197.2,320L172.9,0H100l40.7,320.9c2.5-0.6,5.1-0.9,7.7-0.9L197.2,320z"/>
		<polygon class="st3" points="253.9,320 245.7,0 172.9,0 197.2,320 		"/>
		<polygon class="st4" points="310.5,320 318.6,0 245.7,0 253.9,320 		"/>
		<polygon class="st5" points="367.1,320 391.5,0 318.6,0 310.5,320 		"/>
		<path class="st6" d="M391.5,0l-24.4,320h48.9c2.6,0,5.1,0.3,7.7,0.9L464.3,0H391.5z"/>
		<path class="st7" d="M367.1,320H148.4c-2.6,0-5.1,0.3-7.7,0.9c-16,3.6-27.3,17.8-27.3,34.1l0,0c0,19.3,15.6,35,34.9,35h63.9
			c19.3,0,35,15.7,35,35v195.6c0,19.3,15.7,35,35,35l0,0c19.3,0,35-15.7,35-35V424.9c0-19.3,15.7-35,35-35l0,0h63.9
			c19.3,0,35-15.7,35-35l0,0c0-16.3-11.4-30.5-27.3-34.1c-2.5-0.6-5.1-0.9-7.7-0.9L367.1,320z M282.2,632.5c-4,0-7.2-3.2-7.2-7.2
			s3.2-7.2,7.2-7.2c4,0,7.2,3.2,7.2,7.2l0,0C289.4,629.3,286.2,632.5,282.2,632.5z"/>
		<path class="st0" d="M282.2,618c-4,0-7.2,3.2-7.2,7.2s3.2,7.2,7.2,7.2c4,0,7.2-3.2,7.2-7.2l0,0C289.4,621.2,286.2,618,282.2,618z"
			/>
		<path class="st7" d="M529,583.4c-4.3-3.8-9.8-5.7-16.3-5.7c-6.2,0-11.2,1.6-15.2,5c-5.6,5.3-10.2,9.5-13.8,12.6
			c-3.4,3-7.1,5.7-10.9,8.2c-3.5,2.3-7.2,4-11.2,5.2c-4.2,1.1-8.6,1.7-13,1.7c-6.6,0.1-13-1.6-18.7-5c-5.6-3.3-10-8.3-13.5-15
			c-2.6-5.3-4.3-10.9-5-16.8h81.9c13.3,0,23.6-1.9,31.3-6c9.3-4.8,13.9-14.5,13.9-29c-0.1-14-3.7-27.8-10.5-40.1
			c-7-13.2-17.7-24-31.6-32.3s-30.7-12.4-49.9-12.4c-13.8-0.2-27.5,2.3-40.4,7.1c-11.9,4.5-22.6,11.7-31.3,20.9
			c-8.6,9.4-15.2,20.4-19.2,32.5c-4.4,12.9-6.6,26.5-6.5,40.2c0,30.7,9,55.5,26.6,73.6s42.7,27.5,74.1,27.5c13.7,0,26-1.8,36.6-5.4
			s19.7-8.3,26.9-13.9c7.2-5.6,12.8-11.7,16.6-18.1c4-6.8,5.9-12.8,5.9-18.3C535.8,591.3,532.1,586.2,529,583.4z M445,500.5
			c10,0,17.7,3.1,23.6,9.4c4.9,5.2,8.2,12.8,9.8,22.8H412c1.9-9.8,5.3-17.4,10.2-22.6C428.2,503.6,435.6,500.5,445,500.5L445,500.5z
			"/>
		<path class="st7" d="M609.3,395.1c-5.7-6.2-13.2-9.4-22.3-9.4c-9.1,0-16.6,3.2-22.2,9.6c-5.3,6.1-8,14.7-8,25.7v199.2
			c0,10.8,2.7,19.4,8.1,25.6c5.5,6.4,13.6,10,22,9.8c9,0,16.4-3.2,22.2-9.3s8.4-14.8,8.4-26V421.1
			C617.6,409.9,614.8,401.2,609.3,395.1z"/>
		<path class="st7" d="M720,436.8c1.3-2.6,5.8-3.1,9.3-3.1c3.4,0.1,6.7,0.4,10,0.9c3.4,0.6,6.9,1,10.4,1.1c5.9,0,11.5-2.5,15.3-6.9
			c4.1-4.3,6.3-10.1,6.2-16c0-18-16-27.1-47.6-27.1c-16.3,0-29,2.1-38.8,6.5c-10,4.3-18,12.3-22.3,22.3c-4.1,9.5-6.1,21.6-6.1,37.2
			v6.4H653c-27.5,0-30.5,16.7-30.5,23.9c-0.1,6.9,2.9,13.4,8.2,17.7c5,4.2,12,6.3,20.6,6.3h5.2v114.3c0,10.9,2.8,19.6,8.4,25.8
			c5.5,6.2,13.4,9.7,21.7,9.6c9,0,16.5-3.2,22.2-9.6c5.6-6.2,8.4-14.8,8.4-25.7V506h3.9c9.3,0,16.5-1.2,22.2-3.6
			c5.2-2.3,11.5-7.8,11.5-21.1c0-8.7-4.4-23.2-33.7-23.2h-3.9v-3.5C717.2,444.7,718.8,439.5,720,436.8z"/>
		<path class="st7" d="M937.5,514.4c-8.7-24.4-27.6-43.8-51.8-53.1c-26.1-9.6-54.7-9.7-80.8-0.1c-11.9,4.5-22.6,11.6-31.5,20.6
			c-8.9,9.2-15.7,20.2-20,32.2c-4.7,13.1-7,26.9-6.9,40.8c-0.1,13.7,2.1,27.4,6.8,40.3c8.8,24.3,27.5,43.6,51.5,53.2
			c11.9,4.8,25.5,7.3,40.3,7.3s28.5-2.4,40.6-7.2c11.9-4.6,22.6-11.7,31.5-20.8c8.9-9.3,15.8-20.3,20.2-32.4
			C946.5,569.1,946.6,540.6,937.5,514.4L937.5,514.4z M872.6,593.7c-6.8,8.7-15.8,12.9-27.4,12.9c-7.7,0-14.2-1.9-19.7-5.8
			s-10-9.8-13-17.3c-3.3-8-4.9-17.7-4.9-28.7s1.7-20.8,5-29c3.2-7.8,7.5-13.4,13.1-17.3c5.8-3.9,12.6-5.9,19.5-5.7
			c11.6,0,20.6,4.2,27.4,12.8c7.2,9,10.8,22.2,10.8,39.2C883.4,571.5,879.8,584.6,872.6,593.7z"/>
		<path class="st7" d="M1084.1,462.1c-9.7-5.3-20.5-8-31.6-8.1c-11.4,0-20.8,3-27.9,9c-2.9,2.5-5.6,5.2-8.1,8.2
			c-0.9-2.4-2.1-4.6-3.5-6.7c-3.3-4.8-9.9-10.4-22.5-10.4c-11.1,0-29.8,5-29.8,38.4v127.8c0,11,2.8,19.7,8.3,25.8
			c5.5,6.2,13.5,9.7,21.8,9.5c8.3,0.2,16.3-3.2,22-9.3c5.7-6,8.6-14.8,8.6-26v-38.4c0-13.5,0.4-25.1,1.3-34.4
			c0.6-7.9,2.1-15.6,4.5-23.1c1.9-5.6,4.5-9.8,7.6-12.4c2.9-2.4,6.8-3.6,11.8-3.6c5,0.2,10,1.1,14.8,2.8c9.5,3,12.5,3.5,14.5,3.5
			c6.4,0,12.3-2.5,17.6-7.5c5.3-5,8.3-12,8.1-19.3C1101.7,480.4,1098.6,469.9,1084.1,462.1z"/>
		<path class="st7" d="M1284.9,395c-5.2-6.1-12.5-9.3-21.7-9.3s-16.8,3.5-21.9,10.1c-4.8,6.1-7.2,14.9-7.2,25.9v50.6
			c-4.9-4-10.2-7.5-15.9-10.3c-10.1-5-22.5-7.6-36.8-7.6c-25,0-45.5,8.9-60.9,26.6c-15.2,17.4-22.9,41.6-22.9,72
			c-0.1,13.5,1.8,27,5.6,40c3.5,11.9,9.2,23.1,16.8,32.9c7.2,9.2,16.4,16.7,26.8,22c10.5,5.2,22.1,7.8,33.8,7.8
			c8.6,0.1,17.1-1.2,25.3-3.8c7.8-2.5,15-6.3,21.6-11.2c2.8-2,5.4-4.2,8-6.5c1.2,4.6,3.4,8.8,6.5,12.3c5.3,6,13,9.4,21.1,9.3
			c8.5,0,15.6-3,21.1-9c5.3-5.8,8-14.1,8-24.7V419.4C1292.3,409,1289.8,400.8,1284.9,395z M1226.2,583.9
			c-3.3,7.3-7.8,12.8-13.2,16.2c-5.4,3.4-11.7,5.2-18.2,5.2c-6.4,0.1-12.7-1.8-18-5.4c-5.5-3.6-9.9-9.2-13.2-16.6
			c-3.4-7.8-5.2-17.5-5.2-28.8c0-10.8,1.7-20.3,4.9-28.2c3.1-7.6,7.4-13.4,12.9-17.3c5.3-3.8,11.7-5.9,18.2-5.8
			c6.5,0,12.8,1.9,18.1,5.7c5.6,3.8,10.2,9.6,13.6,17.1c3.5,7.8,5.3,17.4,5.3,28.5C1231.5,566.3,1229.8,576.3,1226.2,583.9z"/>
		<path class="st6" d="M1056.4,655.7c3.2,1.5,6.8,1.9,10.2,1.2c6.2-1,11.5-4.8,14.6-10.2c3.5-5.5,4.8-12.1,3.6-18.5
			c-0.7-4.4-2.5-7.2-5.1-8.5c-3.7-1.7-7.8-2.2-11.7-1.5c-6.1,1-10.7,4.5-13.8,10.3c-3.3,6.3-4.4,12.3-3.5,18
			C1051.6,651.2,1053.5,654.2,1056.4,655.7z"/>
		<path class="st6" d="M1338.3,674.7c-0.4-2.7-2.1-3.8-4.8-3.3c-2.2,0.4-4.1,1.8-5.1,3.7c-1.7,2.8-3.9,5.2-6.6,7.1
			c-0.7-3.8-2.2-7.5-4.3-10.7l-6.2-10.2c-2.5-5.2-3.9-8.7-4.3-10.5c-0.3-1.9,0.2-3.8,1.3-5.3c1.2-1.7,3.9-2.4,8-2c0.7,0,1.3,0,2-0.2
			c2.7-0.5,5.1-2.1,6.6-4.4c1.8-2.2,2.6-5.1,2.1-7.9c-1.3-7.5-6.4-10.5-15.3-9c-5,0.9-10.7,3.9-17,9.1c-6.7,5.2-12.4,11.6-16.8,18.8
			c-38.1,64.6-44.1,59.5-46.4,59.7c-2.5,0.2-3-3.6-2.1-8.4c0.2-1.6,3.6-12.5,10.2-32.7c1.1-2.6,3.3-8.2,6.5-16.8l7-1.2l5.7-1
			c2.9-0.5,4.8-1.2,5.6-2.2l2.7-5.8c0.4-0.9,0.6-1.8,0.6-2.8c-0.4-2.2-6.1-2.4-17.3-0.5c0.4-1.5,0.9-3.1,1.5-4.5
			c1.1-3.6,1.4-7.4,0.9-11.2c-0.5-3-2-5.7-4.2-7.9c-1.9-1.7-3.9-3.4-6-5.1c-2.5-2-4.6-2.9-6.2-2.6s-3.1,1.8-4.2,4.4
			c-6.4,16.2-9.9,25.2-10.5,27c-0.6,1.2-1.6,2.9-2.8,5c-8.7,1.5-13.6,3.6-14.7,6.4c-0.4,1.2-0.5,2.5-0.4,3.8c0.6,3.3,3,4.6,7.2,3.9
			c-9.9,16.7-13.5,26.3-29.8,49.3c-6.1,7.5-10.8,11.5-14.3,12.1c-1.1,0.2-1.7-0.4-1.9-1.7c-0.5-2.9,2.2-13.5,8.1-31.6
			c4.2-13,6-21.1,5.5-24.3c-0.1-1.1-0.6-2-1.3-2.8c-4.1-3.9-7.9-5.6-11.5-5c-2.3,0.4-4.8,1.8-7.5,4.2s-5.4,4.7-8,7.1
			c-4.1,3.4-10.1,10.2-18,20.5c-3.3,4.3-6.9,9-10.8,14.3c3.2-6.9,4.9-11.7,5.1-14.2c0.4-4.8-0.4-9.5-2.4-13.9
			c-1.3-2.7-3.2-5-5.7-6.6c-2.9-2.1-5.6-3.2-8-3.3c-3.6-0.2-9,8.1-16.2,24.9c-5.5,10.5-10.4,19.7-14.7,27.6
			c-12.8,21.4-17.7,21.7-19.1,22c-1.2,0.2-1.9-0.4-2.2-1.9c-0.6-3.2,0.7-10.8,3.9-22.8c3.4-12.9,4.8-21.1,4.2-24.6
			c-0.5-3.1-4.3-7.5-11.3-13.4c-1.6-1.4-3-1.9-4.2-1.7c-2.1,0.7-4.1,1.5-6.1,2.5c-2.5,1.1-5.7,5.5-9.4,13.3
			c-3.3,7-6.5,13.9-9.7,20.9c-12.7,26-17.2,30.5-19.6,33.2c-4.2,4.8-6.8,7-7.8,6.7s-1.7-1.7-2.1-3.9c-0.6-3.4,0-7.8,1.8-13.2
			c4.8-14.5,8.3-25.3,10.5-32.7c2-6.3,2.9-10.8,2.4-13.3c-0.6-3.6-3-7-7.2-10.2c-5.3-4-8.9-5.6-10.9-4.7c-2.9,1.3-4.9,4.4-6.1,9.2
			c0,0.1-0.8,3.1-2.6,8.8c-4.8-1.8-10.9-2-18.2-0.8c-3.8,0.6-7.5,1.8-11,3.4c-7.2,3.5-13.5,8.5-18.4,14.8
			c-2.7,3.6-13.7,21.4-16.8,28c-10.5,19-16.4,25-17.6,26.5c-1.8,2.3-3.5,3.6-5.1,3.8c-3,0.5-4.1-1.5-3.1-6.2
			c1.9-8.7,5.2-20.5,9.9-35.4c1.9-6.2,2.6-11.1,2-14.9c-1-5.8-4.7-8.2-11.2-7.1c-5.3,1-10.2,3.4-14.1,7.1
			c-8.6,7.6-16.4,16.1-23.3,25.3c1.7-4.9,3.1-9.9,4.3-14.9c0.8-3.2,1.1-6.5,0.7-9.8c-0.7-4.4-4.3-8.5-10.7-12.5
			c-2.6-1.6-4.7-2.3-6.3-2c-2.4,0.4-4.6,2.9-6.7,7.5c-2.8,6.1-7.9,15.9-15.4,29.6c-9,16.7-15.4,27.3-19.3,31.9
			c-2.3,2.7-3.2,5.2-2.8,7.4c0.4,2.1,1.6,3,3.7,2.6c1.7-0.3,3.6-1.6,5.7-4c9.8-14.6,17.1-26.3,22-35.1L810.8,790
			c-13.6,35.9-23.7,57.6-30.3,65.3c-3.2,3.7-4.6,6.8-4.1,9.5c0.3,1.7,1.5,3.1,3.1,3.8c2.7,1.2,5.8,1.6,8.8,1
			c4.4-0.9,8.7-2.5,12.7-4.6c8.5-4.3,15.7-13.1,21.5-26.2c2.1-5,7.9-22,17.2-51c2.6-8.1,4.5-14,5.8-17.8
			c5.8-10.8,10.7-19.3,14.8-25.5c3.6-5.4,6.6-8.3,8.9-8.7c1.6-0.3,2.6,0.6,2.9,2.6c0.5,2.8-0.3,6.1-2.4,10
			c-2.4,4.4-4.8,8.7-7.4,13.1c-2.2,4.8-3.7,10-4.3,15.3c-0.4,2.7-0.4,5.5,0,8.2c1.4,8.3,6.8,11.7,16,10.1c5.5-1,10.5-3.4,14.7-7
			c8.9-7.3,17.6-17.5,26.2-30.7l0.2,0c-1.6,5-2,10.3-1.3,15.5c0.6,4.4,3.1,8.4,6.8,10.9c3.8,2.5,8.4,3.4,12.9,2.5
			c5.2-1,10-3.3,14-6.7c4.4-3.6,9.8-9.2,16.2-16.7c-0.3,2.2-0.2,4.5,0.1,6.7c0.7,4,2.5,6.7,5.6,8.1c3,1.4,6.3,1.9,9.5,1.3
			c4.6-0.9,8.9-3.2,12.4-6.4c4.7-4.1,9.1-8.6,13.1-13.4c4.4-5.4,8.5-11.1,12.1-17.1c7-10.2,13.3-20.9,18.8-32.1
			c-5.1,17.4-8,27.8-8.7,31.3c-1.5,6.5-1.8,12.2-0.9,17.1c0.6,2.7,2.1,5.1,4.2,6.8c3,2.7,6.6,4,10.6,3.1c21-5.1,35.3-30.9,43.5-43.4
			c3.5-5.2,8.4-14,14.5-27.6c-6.1,20-9.9,32.7-11.5,38c-0.1,0.4-1.3,3.6-3.7,9.6c-1.5,3.8-2.1,6.8-1.7,9.1c0.8,4.9,3.6,6.9,8.4,6.1
			c3.6-0.6,7.4-3,11.6-7.2c4.1-4,7.4-8.7,9.9-13.9c2.4-5,6.9-13.1,13.6-24.2c5.8-9.7,9.8-16.1,12-19.1c2.1-3,4.3-4.7,6.6-5.1
			c0.9-0.2,1.4,0.1,1.6,0.8c0.1,0.9-0.1,1.8-0.4,2.6c-8.8,26.5-12.3,42.5-10.3,48.2c1.9,5.8,6.8,8,14.4,6.7c3.5-0.6,6.9-2,9.9-3.9
			c3-2,11.8-10,19.5-19.3c6.8-8.1,24.6-38.6,28.7-46.1c-7.8,20.7-11.5,35.7-11.1,45c0.1,3.8,1.9,7.1,5.4,9.9
			c3.7,3.3,8.7,4.6,13.5,3.6c6.3-1.1,15.2-7.3,26.4-18.6c9.6-9.8,17.1-21.4,23.2-30.8c2.3-3.7,5.6-9.2,10-16.4
			c6.6-10.8,11.6-17.7,15.1-20.6c-0.5,4.2-0.1,10,1.3,17.4c1.7,8.3,2.5,14.1,2.4,17.6c-4.8,0.1-9.6,0.4-14.3,1
			c-4.5,0.8-8.7,2.6-12.4,5.2c-4.7,3.4-6.5,8.4-5.4,15c0.8,4.2,2.6,8.1,5.4,11.3c4.7,5.9,13.3,7.7,25.9,5.6c5.7-1,11.1-3.6,15.5-7.4
			c7-5.8,11.5-14,13.4-24.6c6.1-2,11.2-6.1,14.4-11.7C1337.7,678.1,1338.6,675.9,1338.3,674.7z M971,732c-2.3,5-5,9.7-8,14.3
			c-4.4,6.3-7.9,9.7-10.7,10.2c-2.4,0.4-3.8-0.8-4.3-3.8c-0.7-4.4,1.7-12.5,7.5-24.4c7.5-15.3,13-23.3,16.6-23.9
			c2.7-0.4,4.3,0.9,4.8,4.1C977.6,713.4,975.7,721.2,971,732z M1282.1,709.3c-1,0.2-1.9,0.1-2.9-0.1c-2.8-0.9-4.3-2.5-4.7-4.9
			c-0.3-1.8,0.5-3.6,2.4-5.3c1.1-1,6.1-1.7,15.2-2.2C1289.8,704.4,1286.5,708.5,1282.1,709.3L1282.1,709.3z"/>
	</g>
</g>
</svg>
