<svg xmlns="http://www.w3.org/2000/svg" viewBox="-100 0 1438.38 969.69"><defs><style>.cls-1{fill:none;}.cls-2{fill:#2e3191;}.cls-3{fill:#25a9e0;}.cls-4{fill:#22b573;}.cls-5{fill:#faaf40;}.cls-6{fill:#ec1c24;}.cls-7{fill:#fff;}</style></defs><title>telford_paints_2</title><g id="Layer_2" data-name="Layer 2"><g id="Layer_9" data-name="Layer 9"><circle class="cls-1" cx="182.16" cy="625.28" r="7.24"/><path class="cls-1" d="M872,704.39q-5.37.92-16.56,23.9-8.6,17.84-7.47,24.39.75,4.37,4.32,3.75,4.17-.7,10.72-10.22A104.14,104.14,0,0,0,871,732q7.05-16.12,5.79-23.49Q876,703.71,872,704.39Z"/><path class="cls-1" d="M1174.51,704.26c.41,2.38,2,4,4.73,4.91a7,7,0,0,0,2.88.12q6.56-1.12,9.91-12.54-13.58.71-15.16,2.2C1175,700.63,1174.19,702.41,1174.51,704.26Z"/><path class="cls-1" d="M1074,655.3a24.71,24.71,0,0,1,3.47,2.82,5.33,5.33,0,0,1,1.31,2.84q.81,4.77-5.46,24.25-8.8,27.27-8.07,31.64c.23,1.33.87,1.9,1.93,1.71q5.17-.88,14.29-12.06c16.28-23,19.85-32.55,29.77-49.27q-6.36,1.1-7.21-3.87a6.19,6.19,0,0,1-.07-1,82.25,82.25,0,0,1-23.24,3.2C1078.48,655.58,1076.24,655.48,1074,655.3Z"/><path class="cls-1" d="M1148,651.34l-1.75.3q-4.82,12.92-6.49,16.79-9.81,30.32-10.18,32.69c-.95,4.8-.4,8.62,2.06,8.44,2.28-.17,8.11,4.74,44.79-57a29.11,29.11,0,0,1-13.3,3A28.05,28.05,0,0,1,1148,651.34Z"/><path class="cls-1" d="M1112.64,508.85a31.12,31.12,0,0,0-18.11-5.68,30.1,30.1,0,0,0-18.21,5.75c-5.45,3.92-9.77,9.75-12.87,17.32-3.26,8-4.91,17.48-4.91,28.23,0,11.36,1.73,21,5.17,28.81,3.27,7.38,7.7,13,13.2,16.57a31.7,31.7,0,0,0,18,5.43,33.14,33.14,0,0,0,18.17-5.17c5.41-3.41,9.85-8.85,13.2-16.17,3.52-7.68,5.3-17.6,5.3-29.47,0-11.09-1.78-20.68-5.31-28.49C1122.82,518.47,1118.25,512.7,1112.64,508.85Z"/><path class="cls-1" d="M345,500.48c-9.37,0-16.81,3.1-22.75,9.49-4.9,5.27-8.33,12.87-10.24,22.63h66.42c-1.63-9.94-4.91-17.58-9.8-22.76C362.69,503.54,355,500.48,345,500.48Z"/><path class="cls-1" d="M725.48,600.82c5.56,3.9,12,5.8,19.71,5.8,11.63,0,20.59-4.22,27.41-12.9,7.16-9.1,10.78-22.19,10.78-38.91,0-16.93-3.62-30.11-10.77-39.15-6.82-8.63-15.79-12.83-27.42-12.83a33.63,33.63,0,0,0-19.55,5.7c-5.66,3.85-9.95,9.5-13.12,17.28-3.32,8.15-5,17.91-5,29s1.66,20.63,4.92,28.67C715.52,591.07,719.91,596.9,725.48,600.82Z"/><path class="cls-2" d="M97.22,320,72.86,0H0L40.71,320.89a35.19,35.19,0,0,1,7.66-.85Z"/><polygon class="cls-3" points="153.85 320.04 145.73 0 72.86 0 97.22 320.04 153.85 320.04"/><polygon class="cls-4" points="210.47 320.04 218.59 0 145.73 0 153.85 320.04 210.47 320.04"/><polygon class="cls-5" points="267.09 320.04 291.45 0 218.59 0 210.47 320.04 267.09 320.04"/><path class="cls-6" d="M291.45,0,267.09,320h48.85a35.05,35.05,0,0,1,7.66.85L364.31,0Z"/><path class="cls-7" d="M267.09,320H48.37a35,35,0,0,0-34.95,35h0a35,35,0,0,0,34.95,35h63.87a35,35,0,0,1,35,35V620.62a35,35,0,1,0,69.91,0V424.91a35,35,0,0,1,35-35h63.87a35,35,0,0,0,35-35h0a35,35,0,0,0-35-35ZM182.16,632.52a7.24,7.24,0,1,1,7.24-7.24A7.24,7.24,0,0,1,182.16,632.52Z"/><path class="cls-7" d="M429,583.41c-4.3-3.79-9.79-5.72-16.34-5.72-6.17,0-11.18,1.61-15.17,5q-8.44,8-13.76,12.6a94.65,94.65,0,0,1-10.91,8.19,42.15,42.15,0,0,1-11.22,5.15,47.73,47.73,0,0,1-13,1.65,35.52,35.52,0,0,1-18.67-5c-5.62-3.34-10.05-8.26-13.52-15a49.77,49.77,0,0,1-5-16.8h81.94c13.32,0,23.56-1.94,31.32-6,9.25-4.78,13.93-14.55,13.93-29a84.9,84.9,0,0,0-10.46-40.15c-7-13.16-17.65-24-31.62-32.25s-30.74-12.38-49.94-12.38a110.42,110.42,0,0,0-40.38,7.15,84.44,84.44,0,0,0-31.32,20.94,91,91,0,0,0-19.23,32.47,122,122,0,0,0-6.47,40.2c0,30.69,9,55.46,26.65,73.63s42.68,27.48,74.11,27.48c13.66,0,26-1.83,36.61-5.44s19.72-8.28,26.9-13.87,12.84-11.74,16.56-18.08c4-6.77,5.9-12.75,5.9-18.3C435.84,591.31,432.1,586.19,429,583.41ZM322.24,510c5.94-6.39,13.38-9.49,22.75-9.49,10,0,17.7,3.06,23.63,9.36,4.89,5.18,8.17,12.82,9.8,22.76H312C313.91,522.84,317.34,515.24,322.24,510Z"/><path class="cls-7" d="M509.26,395.13c-5.7-6.23-13.2-9.39-22.28-9.39s-16.61,3.24-22.16,9.62c-5.28,6.07-7.95,14.72-7.95,25.71V620.25c0,10.77,2.74,19.37,8.13,25.56a28.29,28.29,0,0,0,22,9.77c8.95,0,16.41-3.15,22.17-9.35s8.45-14.79,8.45-26V421.07C517.6,409.9,514.8,401.17,509.26,395.13Z"/><path class="cls-7" d="M620,436.82c1.25-2.59,5.75-3.13,9.31-3.13a68.46,68.46,0,0,1,10,.92,75.12,75.12,0,0,0,10.38,1.1,20.51,20.51,0,0,0,15.35-6.92,22.75,22.75,0,0,0,6.18-16c0-18-16-27.09-47.61-27.09-16.34,0-29,2.11-38.76,6.45a42.07,42.07,0,0,0-22.29,22.34c-4.08,9.49-6.07,21.65-6.07,37.16v6.39H553c-27.49,0-30.45,16.71-30.45,23.89a22.39,22.39,0,0,0,8.21,17.72c5,4.2,12,6.34,20.56,6.34h5.21V620.25c0,10.94,2.83,19.61,8.4,25.75a28.2,28.2,0,0,0,21.71,9.58c9,0,16.47-3.23,22.23-9.59,5.57-6.15,8.39-14.81,8.39-25.74V506h3.87c9.29,0,16.55-1.19,22.2-3.64,5.22-2.27,11.45-7.77,11.45-21.09,0-8.67-4.37-23.22-33.65-23.22h-3.87v-3.53C617.23,444.69,618.75,439.47,620,436.82Z"/><path class="cls-7" d="M837.52,514.4a88.87,88.87,0,0,0-51.75-53.11A116.84,116.84,0,0,0,705,461.2a88.77,88.77,0,0,0-31.54,20.65,90.73,90.73,0,0,0-20,32.21,117.33,117.33,0,0,0-6.86,40.75,116.09,116.09,0,0,0,6.77,40.33,90.21,90.21,0,0,0,51.53,53.17c11.94,4.82,25.5,7.27,40.28,7.27s28.54-2.41,40.58-7.16a89.57,89.57,0,0,0,31.52-20.82,91.6,91.6,0,0,0,20.15-32.38,123.47,123.47,0,0,0,.08-80.82ZM772.6,593.72c-6.82,8.68-15.78,12.9-27.41,12.9-7.7,0-14.15-1.9-19.71-5.8s-10-9.75-13.05-17.34c-3.26-8-4.92-17.68-4.92-28.67s1.69-20.85,5-29c3.17-7.78,7.46-13.43,13.12-17.28a33.63,33.63,0,0,1,19.55-5.7c11.63,0,20.6,4.2,27.42,12.83,7.15,9,10.77,22.22,10.77,39.15C783.38,571.53,779.76,584.62,772.6,593.72Z"/><path class="cls-7" d="M984.1,462.14a66.83,66.83,0,0,0-31.56-8.1c-11.37,0-20.75,3-27.87,9a65.5,65.5,0,0,0-8.1,8.19,31.63,31.63,0,0,0-3.55-6.74c-3.31-4.75-9.91-10.41-22.55-10.41-11.12,0-29.78,5-29.78,38.36V620.25c0,11,2.79,19.74,8.3,25.82a28.26,28.26,0,0,0,21.82,9.51,29.09,29.09,0,0,0,22-9.32c5.69-6,8.57-14.8,8.57-26V581.9c0-13.5.44-25.08,1.32-34.39a102.88,102.88,0,0,1,4.52-23.12c1.9-5.62,4.46-9.79,7.64-12.41,2.91-2.42,6.76-3.6,11.75-3.6a49.68,49.68,0,0,1,14.81,2.76c9.48,3.05,12.55,3.47,14.47,3.47,6.41,0,12.34-2.52,17.6-7.49a25.78,25.78,0,0,0,8.13-19.26C1001.66,480.38,998.62,469.85,984.1,462.14Z"/><path class="cls-7" d="M1184.88,395c-5.22-6.14-12.52-9.26-21.71-9.26s-16.76,3.49-21.9,10.09c-4.78,6.13-7.2,14.86-7.2,25.92v50.59A87.55,87.55,0,0,0,1118.2,462c-10.08-5-22.46-7.59-36.79-7.59-25,0-45.49,8.94-60.91,26.58-15.17,17.36-22.86,41.58-22.86,72a137.82,137.82,0,0,0,5.61,40,98.61,98.61,0,0,0,16.84,32.89,78.84,78.84,0,0,0,26.82,22,73.5,73.5,0,0,0,17,6,10,10,0,0,1,2.14-.65c2.54-.43,5.21.31,8,2.17,2.22.18,4.46.28,6.72.28a82.25,82.25,0,0,0,23.24-3.2,9.54,9.54,0,0,1,.45-2.77q1.54-4.14,14.65-6.39c1.27-2.13,2.22-3.79,2.83-5,.2-.54.67-1.77,1.42-3.68q2.51-6.45,9.09-23.27c1-2.63,2.43-4.1,4.15-4.39s3.65.6,6.18,2.62q3.09,2.54,6,5.11a14.58,14.58,0,0,1,4.21,7.86,26.3,26.3,0,0,1-.94,11.21,39.17,39.17,0,0,0-1.47,4.54q16.68-2.85,17.26.52a5.42,5.42,0,0,1-.55,2.75l-2.69,5.78a4,4,0,0,1-1.17.88,15.13,15.13,0,0,1-4.39,1.3l-5.66,1-5.3.91a28.05,28.05,0,0,0,15.13,4.24,29.11,29.11,0,0,0,13.3-3l1.6-2.7a66.33,66.33,0,0,1,12.62-15.21,47.49,47.49,0,0,0,1.58-12.73V419.39C1192.27,409,1189.78,400.8,1184.88,395Zm-58.64,188.94c-3.35,7.32-7.79,12.76-13.2,16.17a33.14,33.14,0,0,1-18.17,5.17,31.7,31.7,0,0,1-18-5.43c-5.5-3.61-9.93-9.19-13.2-16.57-3.44-7.76-5.17-17.45-5.17-28.81,0-10.75,1.65-20.25,4.91-28.23,3.1-7.57,7.42-13.4,12.87-17.32a30.1,30.1,0,0,1,18.21-5.75,31.12,31.12,0,0,1,18.11,5.68c5.61,3.85,10.18,9.62,13.59,17.13,3.53,7.81,5.31,17.4,5.31,28.49C1131.54,566.34,1129.76,576.26,1126.24,583.94Z"/><path class="cls-6" d="M979.73,619.67A19,19,0,0,0,968,618.2q-9.15,1.56-13.77,10.34-4.93,9.42-3.46,18,1.19,7,5.65,9.15a16.35,16.35,0,0,0,10.23,1.21,20.72,20.72,0,0,0,14.61-10.17,25.84,25.84,0,0,0,3.58-18.51Q983.75,621.64,979.73,619.67Z"/><path class="cls-6" d="M1233.5,671.45a7.26,7.26,0,0,0-5.09,3.73,23.28,23.28,0,0,1-6.56,7.06,30.48,30.48,0,0,0-4.29-10.72l-6.24-10.17q-3.78-7.74-4.26-10.52a7,7,0,0,1,1.34-5.34q1.8-2.57,8-2a9.77,9.77,0,0,0,2-.15,10.51,10.51,0,0,0,6.61-4.4,10,10,0,0,0,2.11-7.93q-1.93-11.32-15.25-9-7.54,1.29-17,9.06-2.13,1.74-4.19,3.62a66.33,66.33,0,0,0-12.62,15.21l-1.6,2.7c-36.68,61.73-42.51,56.82-44.79,57-2.46.18-3-3.64-2.06-8.44q.36-2.37,10.18-32.69,1.68-3.88,6.49-16.79l1.75-.3,5.3-.91,5.66-1a15.13,15.13,0,0,0,4.39-1.3,4,4,0,0,0,1.17-.88l2.69-5.78a5.42,5.42,0,0,0,.55-2.75q-.58-3.37-17.26-.52a39.17,39.17,0,0,1,1.47-4.54,26.3,26.3,0,0,0,.94-11.21,14.58,14.58,0,0,0-4.21-7.86q-2.9-2.58-6-5.11c-2.53-2-4.59-2.9-6.18-2.62s-3.1,1.76-4.15,4.39q-6.6,16.83-9.09,23.27c-.75,1.91-1.22,3.14-1.42,3.68-.61,1.2-1.56,2.86-2.83,5q-13.11,2.24-14.65,6.39a9.54,9.54,0,0,0-.45,2.77,6.19,6.19,0,0,0,.07,1q.85,5,7.21,3.87c-9.92,16.72-13.49,26.3-29.77,49.27q-9.12,11.19-14.29,12.06c-1.06.19-1.7-.38-1.93-1.71q-.74-4.36,8.07-31.64,6.27-19.49,5.46-24.25a5.33,5.33,0,0,0-1.31-2.84,24.71,24.71,0,0,0-3.47-2.82c-2.8-1.86-5.47-2.6-8-2.17a10,10,0,0,0-2.14.65,20,20,0,0,0-5.33,3.5q-4.1,3.57-8,7.09-6.08,5.13-18,20.46-5,6.39-10.83,14.33,4.74-10.42,5.13-14.17a27.83,27.83,0,0,0-2.38-13.9,16.09,16.09,0,0,0-5.73-6.59c-2.89-2.09-5.56-3.2-8-3.32q-5.37-.31-16.18,24.86-8.25,15.78-14.7,27.59c-12.77,21.4-17.65,21.71-19.11,22-1.19.2-1.91-.42-2.16-1.88q-.83-4.77,3.87-22.75,5.07-19.28,4.16-24.63-.78-4.58-11.3-13.4c-1.59-1.36-3-1.94-4.18-1.74a45.66,45.66,0,0,0-6.12,2.48q-3.79,1.68-9.38,13.27-4.95,10.45-9.71,20.88c-12.73,26-17.23,30.45-19.64,33.22-4.22,4.81-6.83,7-7.85,6.66s-1.72-1.68-2.11-3.93q-.89-5.16,1.83-13.19,7.13-21.68,10.55-32.69,3.07-9.52,2.42-13.3-.92-5.36-7.22-10.21-7.92-6-10.93-4.67-4.34,2-6.13,9.23c0,.13-.84,3.08-2.58,8.83q-7.21-2.65-18.17-.77A39,39,0,0,0,855,690.53a52,52,0,0,0-18.37,14.8c-2.66,3.6-13.72,21.44-16.84,28-10.52,19-16.42,25-17.64,26.51-1.79,2.28-3.47,3.56-5.06,3.83-3,.53-4.09-1.55-3.11-6.21q2.88-13,9.87-35.43,2.91-9.29,2-14.86-1.5-8.73-11.23-7.07a27.66,27.66,0,0,0-14.11,7.13,173.86,173.86,0,0,0-23.28,25.25,149.64,149.64,0,0,0,4.29-14.94,26.94,26.94,0,0,0,.67-9.83q-1.12-6.55-10.73-12.47c-2.59-1.61-4.68-2.27-6.27-2q-3.57.62-6.69,7.49-4.17,9.1-15.37,29.62-13.5,25-19.27,31.93-3.39,4.07-2.81,7.44.54,3.18,3.72,2.63c1.72-.29,3.6-1.64,5.65-4q14.64-21.94,22-35.06l-21.57,56.66q-20.42,53.8-30.31,65.31-4.78,5.52-4.1,9.5a4.91,4.91,0,0,0,3.1,3.76,14.31,14.31,0,0,0,8.75.95,48,48,0,0,0,12.7-4.63q12.79-6.49,21.48-26.18,3.21-7.5,17.23-51,3.84-12.11,5.75-17.75,8.67-16.22,14.85-25.45,5.37-8.07,8.94-8.69c1.59-.27,2.56.58,2.9,2.57q.71,4.17-2.38,10-3.57,6.54-7.36,13.12a52.23,52.23,0,0,0-4.33,15.26,26.68,26.68,0,0,0,0,8.18q2.15,12.52,16.05,10.13a30.89,30.89,0,0,0,14.74-7q13.37-10.92,26.21-30.65l.2-.05A34.42,34.42,0,0,0,814,772.81a15.75,15.75,0,0,0,6.78,10.9,17,17,0,0,0,12.9,2.5,30,30,0,0,0,14-6.69q6.63-5.44,16.16-16.68a24.81,24.81,0,0,0,.13,6.73q1,6,5.59,8.14a15.53,15.53,0,0,0,9.53,1.33,25.39,25.39,0,0,0,12.4-6.42,113.61,113.61,0,0,0,13.1-13.37,150.47,150.47,0,0,0,12.13-17.13,265.71,265.71,0,0,0,18.82-32.06q-7.6,26.06-8.74,31.35-2.21,9.8-.94,17.14a12.17,12.17,0,0,0,4.24,6.84c3,2.74,6.63,4.05,10.55,3.09,21-5.09,35.31-30.88,43.46-43.44,3.5-5.2,8.45-14,14.46-27.63q-9.16,30-11.48,38Q987,736,983.4,745c-1.53,3.81-2.1,6.83-1.71,9.08q1.26,7.35,8.41,6.13,5.35-.93,11.64-7.21a50.18,50.18,0,0,0,9.9-13.87q3.6-7.56,13.63-24.21,8.74-14.59,12-19.13c2.14-3,4.33-4.73,6.59-5.11q1.38-.24,1.56.75A5.14,5.14,0,0,1,1045,694q-13.23,39.69-10.35,48.19,2.92,8.7,14.45,6.73A26.35,26.35,0,0,0,1059,745c3-1.95,11.81-10,19.5-19.27,6.79-8.11,24.64-38.63,28.66-46.14q-11.64,31-11.08,45,.15,5.7,5.38,9.92a15.64,15.64,0,0,0,13.5,3.61q9.52-1.63,26.45-18.64c9.63-9.83,17.09-21.43,23.17-30.76q3.4-5.55,10-16.44,9.9-16.22,15.08-20.58-.77,6.27,1.34,17.36,2.54,12.43,2.4,17.58a126.53,126.53,0,0,0-14.34,1,30.58,30.58,0,0,0-12.4,5.19q-7.11,5.1-5.4,15a24.29,24.29,0,0,0,5.42,11.34q7,8.82,25.9,5.58a32.72,32.72,0,0,0,15.51-7.36q10.56-8.76,13.37-24.58a25.8,25.8,0,0,0,14.36-11.66c1.9-3.19,2.76-5.38,2.55-6.57Q1237.68,670.73,1233.5,671.45ZM871,732a104.14,104.14,0,0,1-8,14.25q-6.54,9.51-10.72,10.22-3.57.62-4.32-3.75-1.12-6.55,7.47-24.39,11.19-23,16.56-23.9,4-.67,4.79,4.08Q878.05,715.84,871,732Zm311.12-22.67a7,7,0,0,1-2.88-.12c-2.75-.89-4.32-2.53-4.73-4.91-.32-1.85.47-3.63,2.36-5.31q1.59-1.5,15.16-2.2Q1188.67,708.18,1182.12,709.29Z"/></g></g></svg>